<?xml version="1.0" encoding="UTF-8" standalone="no"?>
<!-- Created with Inkscape (http://www.inkscape.org/) -->

<svg
   width="384"
   height="683"
   viewBox="0 0 384 683"
   version="1.1"
   id="svg5"
   inkscape:version="1.2.1 (9c6d41e410, 2022-07-14)"
   sodipodi:docname="plasma.svg"
   xml:space="preserve"
   xmlns:inkscape="http://www.inkscape.org/namespaces/inkscape"
   xmlns:sodipodi="http://sodipodi.sourceforge.net/DTD/sodipodi-0.dtd"
   xmlns:xlink="http://www.w3.org/1999/xlink"
   xmlns="http://www.w3.org/2000/svg"
   xmlns:svg="http://www.w3.org/2000/svg"><sodipodi:namedview
     id="namedview7"
     pagecolor="#4f4f4f"
     bordercolor="#1c1c1c"
     borderopacity="1"
     inkscape:showpageshadow="2"
     inkscape:pageopacity="0"
     inkscape:pagecheckerboard="true"
     inkscape:deskcolor="#4f4f4f"
     inkscape:document-units="px"
     showgrid="false"
     inkscape:zoom="1.6572815"
     inkscape:cx="165.33099"
     inkscape:cy="341.82485"
     inkscape:window-width="1440"
     inkscape:window-height="869"
     inkscape:window-x="0"
     inkscape:window-y="0"
     inkscape:window-maximized="1"
     inkscape:current-layer="layer1"><inkscape:grid
       type="xygrid"
       id="grid3875"
       originx="0"
       originy="0" /></sodipodi:namedview><defs
     id="defs2"><linearGradient
       gradientUnits="userSpaceOnUse"
       xlink:href="#linearGradient3893"
       id="linearGradient3899"
       y2="338.88824"
       x2="217.41812"
       y1="338.88824"
       x1="-211.72321"
       gradientTransform="matrix(0.00831276,0,0,0.00823888,15.629722,6.3182171)" /><linearGradient
       id="linearGradient3893"><stop
         offset="0"
         style="stop-color:#f90000;stop-opacity:1"
         id="stop3895" /><stop
         offset="0.5"
         style="stop-color:#00fe1d;stop-opacity:0.49803922"
         id="stop3901" /><stop
         offset="1"
         style="stop-color:#0001fe;stop-opacity:1"
         id="stop3897" /></linearGradient><radialGradient
       gradientTransform="matrix(-0.01554629,-0.01866574,0.00880058,-0.00732978,9.8695249,21.290907)"
       gradientUnits="userSpaceOnUse"
       id="radialGradient4028"
       r="80.999001"
       cy="494.07001"
       cx="432.35001"><stop
         offset="0"
         style="stop-color:#ffffff;stop-opacity:1"
         id="stop4024" /><stop
         offset="1"
         style="stop-color:#ffffff;stop-opacity:0"
         id="stop4026" /></radialGradient><radialGradient
       gradientTransform="matrix(-6.4197322e-4,7.7022068e-5,-7.7022068e-5,-6.4197322e-4,9.3257177,9.1873591)"
       gradientUnits="userSpaceOnUse"
       id="radialGradient4001"
       r="257.14001"
       cy="834.63"
       cx="498.44"><stop
         offset="0"
         style="stop-color:#ffffff;stop-opacity:1"
         id="stop3997" /><stop
         offset="1"
         style="stop-color:#ffffff;stop-opacity:0"
         id="stop3999" /></radialGradient><radialGradient
       gradientTransform="matrix(-4.0105242e-5,-0.00147648,0.00887656,-2.4110433e-4,5.5941396,7.5147366)"
       gradientUnits="userSpaceOnUse"
       id="radialGradient3957"
       r="198.64"
       cy="349.48001"
       cx="404.07001"><stop
         offset="0"
         style="stop-color:#ffffff;stop-opacity:1"
         id="stop3953" /><stop
         offset="1"
         style="stop-color:#ffffff;stop-opacity:0"
         id="stop3955" /></radialGradient><radialGradient
       gradientTransform="matrix(0.00102342,0.00795024,-0.00828139,0.00106601,11.115533,2.8027548)"
       gradientUnits="userSpaceOnUse"
       id="radialGradient3949"
       r="198.14"
       cy="347.42001"
       cx="423.57001"><stop
         offset="0"
         style="stop-color:#ffffff;stop-opacity:1"
         id="stop3945" /><stop
         offset="1"
         style="stop-color:#ffffff;stop-opacity:0"
         id="stop3947" /></radialGradient><radialGradient
       gradientTransform="matrix(3.4148615e-7,-0.00640469,0.00543984,2.7431104e-7,7.5758611,12.27067)"
       gradientUnits="userSpaceOnUse"
       xlink:href="#linearGradient3908"
       id="radialGradient3918"
       r="259.81"
       cy="202.94"
       cx="463.04999" /><linearGradient
       id="linearGradient3908"><stop
         offset="0"
         style="stop-color:#ffffff;stop-opacity:1"
         id="stop3910" /><stop
         offset="0.90625"
         style="stop-color:#ffffff;stop-opacity:0"
         id="stop3924" /><stop
         offset="1"
         style="stop-color:#ffffff;stop-opacity:1"
         id="stop3912" /></linearGradient><radialGradient
       gradientTransform="matrix(-0.00240994,-0.0012493,0.00170577,-0.00329049,7.2503484,11.160795)"
       gradientUnits="userSpaceOnUse"
       xlink:href="#linearGradient3961"
       id="radialGradient3983"
       r="257.14001"
       cy="531.78003"
       cx="229.97" /><linearGradient
       id="linearGradient3961"><stop
         offset="0"
         style="stop-color:#00ffff;stop-opacity:1"
         id="stop3963" /><stop
         offset="1"
         style="stop-color:#000000;stop-opacity:0"
         id="stop3965" /></linearGradient><radialGradient
       gradientTransform="matrix(3.0259279e-7,-0.00640464,0.00543966,2.7407802e-7,5.080229,14.026138)"
       gradientUnits="userSpaceOnUse"
       id="radialGradient3914"
       r="259.81"
       cy="229.23"
       cx="464.39999"><stop
         offset="0"
         style="stop-color:#ffffff;stop-opacity:1"
         id="stop3928" /><stop
         offset="0.61234999"
         style="stop-color:#ffffff;stop-opacity:0"
         id="stop3930" /><stop
         offset="1"
         style="stop-color:#ffffff;stop-opacity:1"
         id="stop3932" /></radialGradient><radialGradient
       gradientTransform="matrix(0,0.0020442,0.00370635,0,6.6859335,7.1255309)"
       gradientUnits="userSpaceOnUse"
       xlink:href="#linearGradient3961"
       id="radialGradient3979"
       r="257.14001"
       cy="538.01001"
       cx="202.50999" /><radialGradient
       gradientTransform="matrix(3.3261109e-7,-0.00641494,0.00544833,2.7468092e-7,7.180757,12.299037)"
       gradientUnits="userSpaceOnUse"
       xlink:href="#linearGradient3908"
       id="radialGradient3916"
       r="259.39999"
       cy="275.13"
       cx="466.73001" /><radialGradient
       gradientTransform="matrix(0.00180911,-0.00101735,-0.00181674,-0.00323056,6.1229162,12.376504)"
       gradientUnits="userSpaceOnUse"
       xlink:href="#linearGradient3961"
       id="radialGradient3981"
       r="257.14001"
       cy="467.48999"
       cx="240.64" /><radialGradient
       gradientTransform="matrix(-0.014075,0.74261,-0.99982,-0.018948,764.36,-49.514)"
       gradientUnits="userSpaceOnUse"
       id="radialGradient3850"
       r="257.14001"
       cy="291.37"
       cx="466.48001"><stop
         offset="0"
         style="stop-color:#ffffff;stop-opacity:1"
         id="stop3846" /><stop
         offset="1"
         style="stop-color:#ffffff;stop-opacity:0"
         id="stop3848" /></radialGradient><radialGradient
       gradientTransform="matrix(-0.66724,1.3468,-2.1729,-1.0765,1325.7,336.88)"
       gradientUnits="userSpaceOnUse"
       id="radialGradient3786"
       r="257.14001"
       cy="367.39001"
       cx="316.31"><stop
         offset="0"
         style="stop-color:#003380;stop-opacity:1"
         id="stop3790" /><stop
         offset="1"
         style="stop-color:#0066ff;stop-opacity:1"
         id="stop3792" /></radialGradient><filter
       id="filter3818"
       color-interpolation-filters="sRGB"
       height="1.597597"
       width="1.597597"
       y="-0.29879847"
       x="-0.29879847"><feGaussianBlur
         id="feGaussianBlur3820"
         stdDeviation="64.027538" /></filter><radialGradient
       gradientTransform="matrix(-0.00227781,0.00599868,-0.01124717,-0.00427079,10.616418,8.8871855)"
       gradientUnits="userSpaceOnUse"
       id="radialGradient3769"
       r="257.14001"
       cy="201.21001"
       cx="424.67999"><stop
         offset="0"
         style="stop-color:#00112b;stop-opacity:1"
         id="stop3987" /><stop
         offset="1"
         style="stop-color:#000000;stop-opacity:1"
         id="stop3989" /></radialGradient><radialGradient
       gradientTransform="matrix(2.1638337e-4,-0.00862028,-0.01203082,-3.0212022e-4,4.6508676,-28.100584)"
       gradientUnits="userSpaceOnUse"
       id="radialGradient3737"
       r="257.14001"
       cy="-49.370998"
       cx="-4657.8999"><stop
         offset="0"
         style="stop-color:#ffffff;stop-opacity:1"
         id="stop3751" /><stop
         offset="1"
         style="stop-color:#333333;stop-opacity:1"
         id="stop3753" /></radialGradient><radialGradient
       gradientTransform="matrix(2.2693078e-4,0.0090405,-0.0126173,3.1684761e-4,1.9032683,52.064219)"
       gradientUnits="userSpaceOnUse"
       id="radialGradient3721"
       r="257.14001"
       cy="-49.370998"
       cx="-4657.8999"><stop
         offset="0"
         style="stop-color:#ffffff;stop-opacity:1"
         id="stop3731" /><stop
         offset="1"
         style="stop-color:#000000;stop-opacity:0"
         id="stop3733" /></radialGradient><radialGradient
       gradientTransform="matrix(-0.0025552,-0.0016392,0.00463105,-0.00721901,15.994039,16.912768)"
       gradientUnits="userSpaceOnUse"
       id="radialGradient3755"
       r="257.14001"
       cy="744.47998"
       cx="733.10999"><stop
         offset="0"
         style="stop-color:#515151;stop-opacity:1"
         id="stop3759" /><stop
         offset="1"
         style="stop-color:#191919;stop-opacity:1"
         id="stop3761" /></radialGradient><radialGradient
       gradientTransform="matrix(-5.3943574e-8,0.01168575,-0.01579425,0,14.620741,3.945834)"
       gradientUnits="userSpaceOnUse"
       id="radialGradient2929"
       r="257.14001"
       cy="282.32999"
       cx="466.25"><stop
         offset="0"
         style="stop-color:#cccccc;stop-opacity:1"
         id="stop3705" /><stop
         offset="1"
         style="stop-color:#1a1a1a;stop-opacity:1"
         id="stop3707" /></radialGradient><radialGradient
       gradientTransform="matrix(-5.6747178e-8,0.01229309,-0.01661512,0,16.67665,0.86868551)"
       gradientUnits="userSpaceOnUse"
       id="radialGradient2925"
       r="257.14001"
       cy="282.32999"
       cx="466.25"><stop
         offset="0"
         style="stop-color:#ffffff;stop-opacity:1"
         id="stop2921" /><stop
         offset="1"
         style="stop-color:#cccccc;stop-opacity:0"
         id="stop2923" /></radialGradient><radialGradient
       gradientTransform="matrix(6.2962e-8,1.1451,-1.7493,2.5402e-5,945.99,-255.75)"
       gradientUnits="userSpaceOnUse"
       id="radialGradient2915"
       r="257.14001"
       cy="276.19"
       cx="468.64999"><stop
         offset="0"
         style="stop-color:#4d4d4d;stop-opacity:1"
         id="stop2911" /><stop
         offset="1"
         style="stop-color:#000000;stop-opacity:1"
         id="stop2913" /></radialGradient><radialGradient
       gradientTransform="matrix(0,0.01127174,-0.01721915,2.5004338e-7,23.874447,0.50790879)"
       gradientUnits="userSpaceOnUse"
       xlink:href="#radialGradient2915"
       id="radialGradient4089"
       r="257.14001"
       cy="276.19"
       cx="468.64999" /><radialGradient
       gradientTransform="matrix(-8.5617239e-5,0.00451723,-0.00608182,-1.1526043e-4,10.51395,4.9183008)"
       gradientUnits="userSpaceOnUse"
       xlink:href="#radialGradient3850"
       id="radialGradient4091"
       r="257.14001"
       cy="291.37"
       cx="466.48001" /><radialGradient
       gradientTransform="matrix(-8.4257234e-5,-0.00444549,-0.00598524,1.1342934e-4,10.484863,12.010037)"
       gradientUnits="userSpaceOnUse"
       xlink:href="#radialGradient3850"
       id="radialGradient4093"
       r="257.14001"
       cy="291.37"
       cx="466.48001" /><radialGradient
       gradientTransform="matrix(-8.2896409e-5,0.00437369,-0.00588856,-1.1159661e-4,10.455711,5.0319085)"
       gradientUnits="userSpaceOnUse"
       xlink:href="#radialGradient3850"
       id="radialGradient4095"
       r="257.14001"
       cy="291.37"
       cx="466.48001" /><radialGradient
       gradientTransform="matrix(-8.1536952e-5,-0.00430195,-0.00579197,1.0976552e-4,10.426623,11.896512)"
       gradientUnits="userSpaceOnUse"
       xlink:href="#radialGradient3850"
       id="radialGradient4097"
       r="257.14001"
       cy="291.37"
       cx="466.48001" /><radialGradient
       gradientTransform="matrix(-8.0176106e-5,0.00423015,-0.0056953,-1.0793361e-4,10.397389,5.1454333)"
       gradientUnits="userSpaceOnUse"
       xlink:href="#radialGradient3850"
       id="radialGradient4099"
       r="257.14001"
       cy="291.37"
       cx="466.48001" /><linearGradient
       inkscape:collect="always"
       id="linearGradient3507"><stop
         style="stop-color:#000000;stop-opacity:1;"
         offset="0"
         id="stop3509" /><stop
         style="stop-color:#000000;stop-opacity:0;"
         offset="1"
         id="stop3511" /></linearGradient><linearGradient
       id="linearGradient3497"><stop
         style="stop-color:#ffffff;stop-opacity:1;"
         offset="0"
         id="stop3499" /><stop
         style="stop-color:#ffffff;stop-opacity:0.56730771;"
         offset="1"
         id="stop3501" /></linearGradient><linearGradient
       id="linearGradient4598"><stop
         style="stop-color:#e6eef7;stop-opacity:1;"
         offset="0"
         id="stop4600" /><stop
         style="stop-color:#8ab0d8;stop-opacity:1;"
         offset="1"
         id="stop4602" /></linearGradient><linearGradient
       id="linearGradient4590"><stop
         style="stop-color:#cc0000;stop-opacity:1;"
         offset="0"
         id="stop4592" /><stop
         style="stop-color:#ffa2a2;stop-opacity:1;"
         offset="1"
         id="stop4594" /></linearGradient><linearGradient
       id="linearGradient4570"><stop
         style="stop-color:#eceeea;stop-opacity:1;"
         offset="0"
         id="stop4572" /><stop
         style="stop-color:#d3d7cf;stop-opacity:1;"
         offset="1"
         id="stop4574" /></linearGradient><linearGradient
       id="linearGradient11520"><stop
         id="stop11522"
         offset="0.0000000"
         style="stop-color:#ffffff;stop-opacity:1.0000000;" /><stop
         id="stop11524"
         offset="1.0000000"
         style="stop-color:#dcdcdc;stop-opacity:1.0000000;" /></linearGradient><linearGradient
       id="linearGradient11494"
       inkscape:collect="always"><stop
         id="stop11496"
         offset="0"
         style="stop-color:#ef2929;stop-opacity:1;" /><stop
         id="stop11498"
         offset="1"
         style="stop-color:#ef2929;stop-opacity:0;" /></linearGradient><linearGradient
       id="linearGradient11415"><stop
         id="stop11417"
         offset="0.0000000"
         style="stop-color:#204a87;stop-opacity:0.0000000;" /><stop
         style="stop-color:#204a87;stop-opacity:1.0000000;"
         offset="0.50000000"
         id="stop11423" /><stop
         id="stop11419"
         offset="1"
         style="stop-color:#204a87;stop-opacity:0;" /></linearGradient><linearGradient
       gradientTransform="translate(-60.28571,-0.285714)"
       y2="34.462429"
       x2="43.615788"
       y1="3.774456"
       x1="15.82836"
       gradientUnits="userSpaceOnUse"
       id="linearGradient11425"
       xlink:href="#linearGradient11415"
       inkscape:collect="always" /><linearGradient
       gradientTransform="translate(-60.57143)"
       y2="39.033859"
       x2="35.679932"
       y1="9.3458843"
       x1="9.6957054"
       gradientUnits="userSpaceOnUse"
       id="linearGradient11427"
       xlink:href="#linearGradient11415"
       inkscape:collect="always" /><linearGradient
       y2="33.462429"
       x2="26.758644"
       y1="19.774456"
       x1="13.267134"
       gradientTransform="translate(-60.85714,0.428571)"
       gradientUnits="userSpaceOnUse"
       id="linearGradient11439"
       xlink:href="#linearGradient11415"
       inkscape:collect="always" /><radialGradient
       r="8.5"
       fy="39.142857"
       fx="12.071428"
       cy="39.142857"
       cx="12.071428"
       gradientTransform="matrix(1,0,0,0.487395,0,20.06483)"
       gradientUnits="userSpaceOnUse"
       id="radialGradient11441"
       xlink:href="#linearGradient3507"
       inkscape:collect="always" /><radialGradient
       gradientTransform="matrix(1.243453,0,0,1.243453,-6.713754,-3.742847)"
       gradientUnits="userSpaceOnUse"
       r="3.8335035"
       fy="15.048258"
       fx="27.577173"
       cy="15.048258"
       cx="27.577173"
       id="radialGradient11500"
       xlink:href="#linearGradient11494"
       inkscape:collect="always" /><radialGradient
       r="3.8335035"
       fy="16.049133"
       fx="27.577173"
       cy="16.049133"
       cx="27.577173"
       gradientTransform="matrix(1.243453,0,0,1.243453,-6.713754,-3.742847)"
       gradientUnits="userSpaceOnUse"
       id="radialGradient11504"
       xlink:href="#linearGradient11494"
       inkscape:collect="always" /><radialGradient
       gradientUnits="userSpaceOnUse"
       gradientTransform="matrix(1,0,0,0.338462,0,29.48178)"
       r="6.5659914"
       fy="44.565483"
       fx="30.203562"
       cy="44.565483"
       cx="30.203562"
       id="radialGradient11514"
       xlink:href="#linearGradient3507"
       inkscape:collect="always" /><radialGradient
       gradientTransform="matrix(1.995058,0,0,1.995058,-24.32488,-35.70087)"
       gradientUnits="userSpaceOnUse"
       r="20.530962"
       fy="35.87817"
       fx="24.44569"
       cy="35.87817"
       cx="24.44569"
       id="radialGradient11526"
       xlink:href="#linearGradient11520"
       inkscape:collect="always" /><radialGradient
       r="6.5659914"
       fy="44.565483"
       fx="30.203562"
       cy="44.565483"
       cx="30.203562"
       gradientTransform="matrix(1,0,0,0.338462,0,29.48178)"
       gradientUnits="userSpaceOnUse"
       id="radialGradient11532"
       xlink:href="#linearGradient3507"
       inkscape:collect="always" /><radialGradient
       inkscape:collect="always"
       xlink:href="#linearGradient3507"
       id="radialGradient1348"
       gradientUnits="userSpaceOnUse"
       gradientTransform="matrix(1,0,0,0.338462,0,29.48178)"
       cx="30.203562"
       cy="44.565483"
       fx="30.203562"
       fy="44.565483"
       r="6.5659914" /><radialGradient
       inkscape:collect="always"
       xlink:href="#linearGradient11520"
       id="radialGradient1350"
       gradientUnits="userSpaceOnUse"
       gradientTransform="matrix(1.995058,0,0,1.995058,-24.32488,-35.70087)"
       cx="24.44569"
       cy="35.87817"
       fx="24.44569"
       fy="35.87817"
       r="20.530962" /><radialGradient
       inkscape:collect="always"
       xlink:href="#linearGradient11494"
       id="radialGradient1352"
       gradientUnits="userSpaceOnUse"
       gradientTransform="matrix(1.243453,0,0,1.243453,-6.713754,-3.742847)"
       cx="27.577173"
       cy="16.049133"
       fx="27.577173"
       fy="16.049133"
       r="3.8335035" /><radialGradient
       inkscape:collect="always"
       xlink:href="#linearGradient11494"
       id="radialGradient1354"
       gradientUnits="userSpaceOnUse"
       gradientTransform="matrix(1.243453,0,0,1.243453,-6.713754,-3.742847)"
       cx="27.577173"
       cy="15.048258"
       fx="27.577173"
       fy="15.048258"
       r="3.8335035" /><radialGradient
       inkscape:collect="always"
       xlink:href="#linearGradient3507"
       id="radialGradient1356"
       gradientUnits="userSpaceOnUse"
       gradientTransform="matrix(1,0,0,0.338462,0,29.48178)"
       cx="30.203562"
       cy="44.565483"
       fx="30.203562"
       fy="44.565483"
       r="6.5659914" /><radialGradient
       inkscape:collect="always"
       xlink:href="#linearGradient11520"
       id="radialGradient1366"
       gradientUnits="userSpaceOnUse"
       gradientTransform="matrix(2.049266,0,0,2.049266,-25.65002,-37.31089)"
       cx="24.44569"
       cy="35.87817"
       fx="24.44569"
       fy="35.87817"
       r="20.530962" /></defs><g
     inkscape:label="Capa 1"
     inkscape:groupmode="layer"
     id="layer1"><rect
       style="opacity:1;fill:#268db3;fill-opacity:1;stroke-width:0.510026"
       id="rect3929"
       width="400"
       height="700"
       x="0"
       y="0"
       ry="2.6923077" /><path
       id="path34544"
       style="fill:#16566f;fill-opacity:1;stroke-width:5"
       d="m 192,275 c -66.47979,0 -120,53.52022 -120,120 0,66.47979 53.52021,120 120,120 66.47978,0 120,-53.52021 120,-120 0,-66.47978 -53.52022,-120 -120,-120 z m 0,10 c 60.93988,0 110,49.06011 110,110 0,60.93989 -49.06012,110 -110,110 C 131.06011,505 82,455.93989 82,395 82,334.06011 131.06011,285 192,285 Z"
       sodipodi:nodetypes="ssssssssss" /><path
       id="rect281"
       style="fill:#207a9d;fill-opacity:1;stroke-width:5"
       d="m 192,270 c -66.47979,0 -120,53.52022 -120,120 0,66.47979 53.52021,120 120,120 66.47978,0 120,-53.52021 120,-120 0,-66.47978 -53.52022,-120 -120,-120 z m 0,10 c 60.93988,0 110,49.06011 110,110 0,60.93989 -49.06012,110 -110,110 C 131.06011,500 82,450.93989 82,390 82,329.06011 131.06011,280 192,280 Z m 0,30 c -128,-206.66667 -64,-103.33333 0,0 z"
       sodipodi:nodetypes="sssssssssscc" /><rect
       style="opacity:1;fill:#43a64f;fill-opacity:1;stroke-width:0.510026"
       id="rect1771"
       width="400"
       height="700"
       x="-434.19824"
       y="-3.7318296"
       ry="2.6923077" /><path
       id="path1773"
       style="fill:#29382a;fill-opacity:1;stroke-width:5"
       d="m -242.19826,271.26817 c -66.47979,0 -120,53.52022 -120,120 0,66.47979 53.52021,120 120,120 66.47978,0 120,-53.52021 120,-120 0,-66.47978 -53.52022,-120 -120,-120 z m 0,10 c 60.93988,0 110,49.06011 110,110 0,60.93989 -49.06012,110 -110,110 -60.93989,0 -110,-49.06011 -110,-110 0,-60.93989 49.06011,-110 110,-110 z m 0,30 c -13.84994,0 -25,11.15007 -25,25 v 25 a 5,5 0 0 1 -5,5 h -25 c -13.84994,0 -25,11.15007 -25,25 0,13.84994 11.15006,25 25,25 h 25 a 5,5 0 0 1 5,5 v 25 c 0,13.84994 11.15006,25 25,25 13.84993,0 25,-11.15006 25,-25 v -25 a 5,5 0 0 1 5,-5 h 25 c 13.84993,0 25,-11.15006 25,-25 0,-13.84993 -11.15007,-25 -25,-25 h -25 a 5,5 0 0 1 -5,-5 v -25 c 0,-13.84993 -11.15007,-25 -25,-25 z m 0,10 c 8.30994,0 15,6.69006 15,15 v 25 a 15,15 0 0 0 15,15 h 25 c 8.30994,0 15,6.69006 15,15 0,8.30994 -6.69006,15 -15,15 h -25 a 15,15 0 0 0 -15,15 v 25 c 0,8.30994 -6.69006,15 -15,15 -8.30995,0 -15,-6.69006 -15,-15 v -25 a 15,15 0 0 0 -15,-15 h -25 c -8.30995,0 -15,-6.69006 -15,-15 0,-8.30994 6.69005,-15 15,-15 h 25 a 15,15 0 0 0 15,-15 v -25 c 0,-8.30994 6.69005,-15 15,-15 z" /><path
       id="path1775"
       style="fill:#2e4631;fill-opacity:1;stroke-width:5"
       d="m -242.19826,266.26817 c -66.47979,0 -120,53.52022 -120,120 0,66.47979 53.52021,120 120,120 66.47978,0 120,-53.52021 120,-120 0,-66.47978 -53.52022,-120 -120,-120 z m 0,10 c 60.93988,0 110,49.06011 110,110 0,60.93989 -49.06012,110 -110,110 -60.93989,0 -110,-49.06011 -110,-110 0,-60.93989 49.06011,-110 110,-110 z m 0,30 c -13.84994,0 -25,11.15007 -25,25 v 25 a 5,5 0 0 1 -5,5 h -25 c -13.84994,0 -25,11.15007 -25,25 0,13.84994 11.15006,25 25,25 h 25 a 5,5 0 0 1 5,5 v 25 c 0,13.84994 11.15006,25 25,25 13.84993,0 25,-11.15006 25,-25 v -25 a 5,5 0 0 1 5,-5 h 25 c 13.84993,0 25,-11.15006 25,-25 0,-13.84993 -11.15007,-25 -25,-25 h -25 a 5,5 0 0 1 -5,-5 v -25 c 0,-13.84993 -11.15007,-25 -25,-25 z m 0,10 c 8.30994,0 15,6.69006 15,15 v 25 a 15,15 0 0 0 15,15 h 25 c 8.30994,0 15,6.69006 15,15 0,8.30994 -6.69006,15 -15,15 h -25 a 15,15 0 0 0 -15,15 v 25 c 0,8.30994 -6.69006,15 -15,15 -8.30995,0 -15,-6.69006 -15,-15 v -25 a 15,15 0 0 0 -15,-15 h -25 c -8.30995,0 -15,-6.69006 -15,-15 0,-8.30994 6.69005,-15 15,-15 h 25 a 15,15 0 0 0 15,-15 v -25 c 0,-8.30994 6.69005,-15 15,-15 z" /><g
       inkscape:label="Layer 1"
       id="g10653"
       transform="matrix(3.7795276,0,0,3.7795276,231.35796,-501.8303)"
       style="fill:#16566f;fill-opacity:1;stroke:#16566f;stroke-opacity:1"><path
         style="fill:#16566f;fill-opacity:1;stroke:#16566f;stroke-width:2.38125;stroke-linecap:round;stroke-linejoin:round;stroke-dasharray:none;stroke-opacity:1"
         id="path10645"
         d="m -16.378375,218.32335 c -1.223929,0 -2.216149,0.99224 -2.216149,2.2162 0,1.22397 0.99222,2.21607 2.216149,2.21607 1.223926,0 2.216146,-0.9921 2.216146,-2.21607 0,-1.22396 -0.99222,-2.2162 -2.216146,-2.2162 z"
         mask="none" /><path
         style="fill:#16566f;fill-opacity:1;stroke:#16566f;stroke-width:2.38125;stroke-linecap:round;stroke-linejoin:round;stroke-dasharray:none;stroke-opacity:1"
         id="path10647"
         d="m -0.86537278,218.32335 -4.43228072,4.43227 8.8645754,8.86464 -8.8645754,8.86458 4.43228072,4.43224 8.86458968,-8.86458 4.4322811,-4.43224 -4.4322811,-4.4323 z"
         mask="none" /><path
         style="fill:#16566f;fill-opacity:1;stroke:#16566f;stroke-width:2.38125;stroke-linecap:round;stroke-linejoin:round;stroke-dasharray:none;stroke-opacity:1"
         id="path10649"
         d="m -23.026804,231.62026 c -2.44787,0 -4.432295,1.98444 -4.432295,4.43224 0,2.44787 1.984425,4.43234 4.432295,4.43234 2.447855,0 4.43228,-1.98447 4.43228,-4.43234 0,-2.4478 -1.984425,-4.43224 -4.43228,-4.43224 z"
         mask="none" /><path
         style="fill:#16566f;fill-opacity:1;stroke:#16566f;stroke-width:2.38125;stroke-linecap:round;stroke-linejoin:round;stroke-dasharray:none;stroke-opacity:1"
         id="path10651"
         d="m -11.94608,244.91708 c -3.671858,0 -6.648444,2.97667 -6.648444,6.64844 0,3.6719 2.976586,6.64847 6.648444,6.64847 3.6718409,0 6.6484265,-2.97657 6.6484265,-6.64847 0,-3.67177 -2.9765856,-6.64844 -6.6484265,-6.64844 z"
         mask="none" /></g><g
       inkscape:label="Layer 1"
       id="layer1-9"
       transform="matrix(3.7795276,0,0,3.7795276,227.85677,-504.88758)"
       style="stroke:#207a9d;stroke-opacity:1"><path
         style="fill:#ffffff;stroke:#207a9d;stroke-width:2.38125;stroke-linecap:round;stroke-linejoin:round;stroke-dasharray:none;stroke-opacity:1"
         id="path4353"
         d="m -16.378375,218.32335 c -1.223929,0 -2.216149,0.99224 -2.216149,2.2162 0,1.22397 0.99222,2.21607 2.216149,2.21607 1.223926,0 2.216146,-0.9921 2.216146,-2.21607 0,-1.22396 -0.99222,-2.2162 -2.216146,-2.2162 z"
         mask="none" /><path
         style="fill:#ffffff;stroke:#207a9d;stroke-width:2.38125;stroke-linecap:round;stroke-linejoin:round;stroke-dasharray:none;stroke-opacity:1"
         id="path4351"
         d="m -0.86537278,218.32335 -4.43228072,4.43227 8.8645754,8.86464 -8.8645754,8.86458 4.43228072,4.43224 8.86458968,-8.86458 4.4322811,-4.43224 -4.4322811,-4.4323 z"
         mask="none" /><path
         style="fill:#ffffff;stroke:#207a9d;stroke-width:2.38125;stroke-linecap:round;stroke-linejoin:round;stroke-dasharray:none;stroke-opacity:1"
         id="path4349"
         d="m -23.026804,231.62026 c -2.44787,0 -4.432295,1.98444 -4.432295,4.43224 0,2.44787 1.984425,4.43234 4.432295,4.43234 2.447855,0 4.43228,-1.98447 4.43228,-4.43234 0,-2.4478 -1.984425,-4.43224 -4.43228,-4.43224 z"
         mask="none" /><path
         style="fill:#ffffff;stroke:#207a9d;stroke-width:2.38125;stroke-linecap:round;stroke-linejoin:round;stroke-dasharray:none;stroke-opacity:1"
         id="path4327"
         d="m -11.94608,244.91708 c -3.671858,0 -6.648444,2.97667 -6.648444,6.64844 0,3.6719 2.976586,6.64847 6.648444,6.64847 3.6718409,0 6.6484265,-2.97657 6.6484265,-6.64847 0,-3.67177 -2.9765856,-6.64844 -6.6484265,-6.64844 z"
         mask="none" /></g></g></svg>
