<?xml version="1.0" encoding="UTF-8" standalone="no"?>
<!-- Created with Inkscape (http://www.inkscape.org/) -->

<svg
   width="384"
   height="683"
   viewBox="0 0 384 683"
   version="1.1"
   id="svg5"
   inkscape:version="1.2.1 (9c6d41e410, 2022-07-14)"
   sodipodi:docname="xfce.svg"
   xml:space="preserve"
   xmlns:inkscape="http://www.inkscape.org/namespaces/inkscape"
   xmlns:sodipodi="http://sodipodi.sourceforge.net/DTD/sodipodi-0.dtd"
   xmlns="http://www.w3.org/2000/svg"
   xmlns:svg="http://www.w3.org/2000/svg"><sodipodi:namedview
     id="namedview7"
     pagecolor="#4f4f4f"
     bordercolor="#1c1c1c"
     borderopacity="1"
     inkscape:showpageshadow="2"
     inkscape:pageopacity="0"
     inkscape:pagecheckerboard="true"
     inkscape:deskcolor="#4f4f4f"
     inkscape:document-units="px"
     showgrid="false"
     inkscape:zoom="1.6572815"
     inkscape:cx="276.35619"
     inkscape:cy="348.46222"
     inkscape:window-width="1440"
     inkscape:window-height="869"
     inkscape:window-x="0"
     inkscape:window-y="0"
     inkscape:window-maximized="1"
     inkscape:current-layer="layer1"><inkscape:grid
       type="xygrid"
       id="grid3875"
       originx="0"
       originy="0" /></sodipodi:namedview><defs
     id="defs2" /><g
     inkscape:label="Capa 1"
     inkscape:groupmode="layer"
     id="layer1"><rect
       style="opacity:1;fill:#0044aa;fill-opacity:1;stroke-width:0.510026"
       id="rect3929"
       width="400"
       height="700"
       x="0"
       y="0"
       ry="2.6923077" /><path
       id="path34544"
       style="fill:#001d46;fill-opacity:1;stroke-width:5"
       d="m 192,275 c -66.47979,0 -120,53.52022 -120,120 0,66.47979 53.52021,120 120,120 66.47978,0 120,-53.52021 120,-120 0,-66.47978 -53.52022,-120 -120,-120 z m 0,10 c 60.93988,0 110,49.06011 110,110 0,60.93989 -49.06012,110 -110,110 C 131.06011,505 82,455.93989 82,395 82,334.06011 131.06011,285 192,285 Z"
       sodipodi:nodetypes="ssssssssss" /><path
       id="rect281"
       style="fill:#003685;fill-opacity:1;stroke-width:5"
       d="m 192,270 c -66.47979,0 -120,53.52022 -120,120 0,66.47979 53.52021,120 120,120 66.47978,0 120,-53.52021 120,-120 0,-66.47978 -53.52022,-120 -120,-120 z m 0,10 c 60.93988,0 110,49.06011 110,110 0,60.93989 -49.06012,110 -110,110 C 131.06011,500 82,450.93989 82,390 82,329.06011 131.06011,280 192,280 Z m 0,30 c -128,-206.66667 -64,-103.33333 0,0 z"
       sodipodi:nodetypes="sssssssssscc" /><rect
       style="opacity:1;fill:#43a64f;fill-opacity:1;stroke-width:0.510026"
       id="rect1771"
       width="400"
       height="700"
       x="-434.19824"
       y="-3.7318296"
       ry="2.6923077" /><path
       id="path1773"
       style="fill:#29382a;fill-opacity:1;stroke-width:5"
       d="m -242.19826,271.26817 c -66.47979,0 -120,53.52022 -120,120 0,66.47979 53.52021,120 120,120 66.47978,0 120,-53.52021 120,-120 0,-66.47978 -53.52022,-120 -120,-120 z m 0,10 c 60.93988,0 110,49.06011 110,110 0,60.93989 -49.06012,110 -110,110 -60.93989,0 -110,-49.06011 -110,-110 0,-60.93989 49.06011,-110 110,-110 z m 0,30 c -13.84994,0 -25,11.15007 -25,25 v 25 a 5,5 0 0 1 -5,5 h -25 c -13.84994,0 -25,11.15007 -25,25 0,13.84994 11.15006,25 25,25 h 25 a 5,5 0 0 1 5,5 v 25 c 0,13.84994 11.15006,25 25,25 13.84993,0 25,-11.15006 25,-25 v -25 a 5,5 0 0 1 5,-5 h 25 c 13.84993,0 25,-11.15006 25,-25 0,-13.84993 -11.15007,-25 -25,-25 h -25 a 5,5 0 0 1 -5,-5 v -25 c 0,-13.84993 -11.15007,-25 -25,-25 z m 0,10 c 8.30994,0 15,6.69006 15,15 v 25 a 15,15 0 0 0 15,15 h 25 c 8.30994,0 15,6.69006 15,15 0,8.30994 -6.69006,15 -15,15 h -25 a 15,15 0 0 0 -15,15 v 25 c 0,8.30994 -6.69006,15 -15,15 -8.30995,0 -15,-6.69006 -15,-15 v -25 a 15,15 0 0 0 -15,-15 h -25 c -8.30995,0 -15,-6.69006 -15,-15 0,-8.30994 6.69005,-15 15,-15 h 25 a 15,15 0 0 0 15,-15 v -25 c 0,-8.30994 6.69005,-15 15,-15 z" /><path
       id="path1775"
       style="fill:#2e4631;fill-opacity:1;stroke-width:5"
       d="m -242.19826,266.26817 c -66.47979,0 -120,53.52022 -120,120 0,66.47979 53.52021,120 120,120 66.47978,0 120,-53.52021 120,-120 0,-66.47978 -53.52022,-120 -120,-120 z m 0,10 c 60.93988,0 110,49.06011 110,110 0,60.93989 -49.06012,110 -110,110 -60.93989,0 -110,-49.06011 -110,-110 0,-60.93989 49.06011,-110 110,-110 z m 0,30 c -13.84994,0 -25,11.15007 -25,25 v 25 a 5,5 0 0 1 -5,5 h -25 c -13.84994,0 -25,11.15007 -25,25 0,13.84994 11.15006,25 25,25 h 25 a 5,5 0 0 1 5,5 v 25 c 0,13.84994 11.15006,25 25,25 13.84993,0 25,-11.15006 25,-25 v -25 a 5,5 0 0 1 5,-5 h 25 c 13.84993,0 25,-11.15006 25,-25 0,-13.84993 -11.15007,-25 -25,-25 h -25 a 5,5 0 0 1 -5,-5 v -25 c 0,-13.84993 -11.15007,-25 -25,-25 z m 0,10 c 8.30994,0 15,6.69006 15,15 v 25 a 15,15 0 0 0 15,15 h 25 c 8.30994,0 15,6.69006 15,15 0,8.30994 -6.69006,15 -15,15 h -25 a 15,15 0 0 0 -15,15 v 25 c 0,8.30994 -6.69006,15 -15,15 -8.30995,0 -15,-6.69006 -15,-15 v -25 a 15,15 0 0 0 -15,-15 h -25 c -8.30995,0 -15,-6.69006 -15,-15 0,-8.30994 6.69005,-15 15,-15 h 25 a 15,15 0 0 0 15,-15 v -25 c 0,-8.30994 6.69005,-15 15,-15 z" /><g
       id="g4198"
       transform="matrix(1.0564477,0,0,1.0564477,121.04643,-164.09799)"
       style="fill:#001d46;fill-opacity:1;stroke:#001d46;stroke-width:4.82405;stroke-dasharray:none;stroke-opacity:1"><path
         d="m 44.966144,485.97029 c -3.142035,8.45315 4.854732,19.64211 1.872181,25.95376 -7.442585,-4.0874 -6.677764,-16.95896 -14.315941,-22.42555 -8.653761,-7.35482 -16.838598,6.27404 -14.2031,14.3009 3.217263,9.45619 2.790969,18.13753 -1.589323,27.25771 -4.002145,15.59984 -6.86082,34.22887 2.871213,48.32163 9.684387,12.1243 27.182485,10.64731 40.748653,7.57549 19.265963,-4.9099 37.137711,-14.22817 54.314833,-24.04045 7.17177,-5.01522 17.22728,-10.43667 17.47804,-20.28154 -2.27164,-14.02506 -17.22226,-20.10351 -29.06319,-24.2511 -11.535006,-4.09241 -23.609164,-6.76302 -35.858836,-7.252 -0.999032,-10.9407 2.124698,-26.90665 -9.651789,-32.82461 -5.286041,-1.19362 -11.768209,1.92735 -12.588199,7.68331 z"
         fill="#ffffff"
         id="path4192"
         style="fill:#001d46;fill-opacity:1;stroke:#001d46;stroke-width:4.82405;stroke-dasharray:none;stroke-opacity:1" /><path
         d="m 93.613783,503.42325 c -2.307502,9.54898 9.286027,10.34006 9.375947,0.27158 0.1,-11.19499 7.55019,-23.37566 2.84113,-33.57689 -2.89155,-6.26392 -7.969187,12.08417 -9.396016,17.11694 -0.986895,5.70181 -2.39078,11.27023 -2.821061,16.18837 z"
         fill="#ffffff"
         id="path4194"
         sodipodi:nodetypes="csscc"
         style="fill:#001d46;fill-opacity:1;stroke:#001d46;stroke-width:4.82405;stroke-dasharray:none;stroke-opacity:1" /><path
         d="m 110.13893,505.17858 c -5.41253,7.53133 3.24374,16.24126 7.08901,6.53483 4.5806,-11.56269 12.90195,-22.06516 14.36359,-34.37933 1.00796,-8.49217 -10.22854,5.77503 -11.88607,9.33583 -3.62006,6.30506 -5.96014,13.49047 -9.56653,18.50867 z"
         fill="#ffffff"
         id="path4196"
         sodipodi:nodetypes="ssscs"
         style="fill:#001d46;fill-opacity:1;stroke:#001d46;stroke-width:4.82405;stroke-dasharray:none;stroke-opacity:1" /></g><g
       id="g3268"
       transform="matrix(1.0564477,0,0,1.0564477,118.0416,-167.46587)"
       style="fill:#ffffff;fill-opacity:1;stroke:#003685;stroke-width:4.82405;stroke-dasharray:none;stroke-opacity:1"><path
         d="m 44.966144,485.97029 c -3.142035,8.45315 4.854732,19.64211 1.872181,25.95376 -7.442585,-4.0874 -6.677764,-16.95896 -14.315941,-22.42555 -8.653761,-7.35482 -16.838598,6.27404 -14.2031,14.3009 3.217263,9.45619 2.790969,18.13753 -1.589323,27.25771 -4.002145,15.59984 -6.86082,34.22887 2.871213,48.32163 9.684387,12.1243 27.182485,10.64731 40.748653,7.57549 19.265963,-4.9099 37.137711,-14.22817 54.314833,-24.04045 7.17177,-5.01522 17.22728,-10.43667 17.47804,-20.28154 -2.27164,-14.02506 -17.22226,-20.10351 -29.06319,-24.2511 -11.535006,-4.09241 -23.609164,-6.76302 -35.858836,-7.252 -0.999032,-10.9407 2.124698,-26.90665 -9.651789,-32.82461 -5.286041,-1.19362 -11.768209,1.92735 -12.588199,7.68331 z"
         fill="#ffffff"
         id="path4"
         style="fill:#ffffff;fill-opacity:1;stroke:#003685;stroke-width:4.82405;stroke-dasharray:none;stroke-opacity:1" /><path
         d="m 93.613783,503.42325 c -2.307502,9.54898 9.286027,10.34006 9.375947,0.27158 0.1,-11.19499 7.55019,-23.37566 2.84113,-33.57689 -2.89155,-6.26392 -7.969187,12.08417 -9.396016,17.11694 -0.986895,5.70181 -2.39078,11.27023 -2.821061,16.18837 z"
         fill="#ffffff"
         id="path6"
         sodipodi:nodetypes="csscc"
         style="fill:#ffffff;fill-opacity:1;stroke:#003685;stroke-width:4.82405;stroke-dasharray:none;stroke-opacity:1" /><path
         d="m 110.13893,505.17858 c -5.41253,7.53133 3.24374,16.24126 7.08901,6.53483 4.5806,-11.56269 12.90195,-22.06516 14.36359,-34.37933 1.00796,-8.49217 -10.22854,5.77503 -11.88607,9.33583 -3.62006,6.30506 -5.96014,13.49047 -9.56653,18.50867 z"
         fill="#ffffff"
         id="path8"
         sodipodi:nodetypes="ssscs"
         style="fill:#ffffff;fill-opacity:1;stroke:#003685;stroke-width:4.82405;stroke-dasharray:none;stroke-opacity:1" /></g></g></svg>
