<?xml version="1.0" encoding="UTF-8" standalone="no"?>
<!-- Created with Inkscape (http://www.inkscape.org/) -->

<svg
   width="2560"
   height="1440"
   viewBox="0 0 2560 1440"
   version="1.1"
   id="svg5"
   inkscape:version="1.2.1 (9c6d41e410, 2022-07-14)"
   sodipodi:docname="cinnamon.svg"
   inkscape:export-filename="/home/doubleau/Imágenes/Wallpapers/BI.png"
   inkscape:export-xdpi="90"
   inkscape:export-ydpi="90"
   xml:space="preserve"
   xmlns:inkscape="http://www.inkscape.org/namespaces/inkscape"
   xmlns:sodipodi="http://sodipodi.sourceforge.net/DTD/sodipodi-0.dtd"
   xmlns="http://www.w3.org/2000/svg"
   xmlns:svg="http://www.w3.org/2000/svg"><sodipodi:namedview
     id="namedview7"
     pagecolor="#ffffff"
     bordercolor="#666666"
     borderopacity="1.0"
     inkscape:pageshadow="2"
     inkscape:pageopacity="0"
     inkscape:pagecheckerboard="true"
     inkscape:document-units="px"
     showgrid="false"
     inkscape:snap-bbox="true"
     inkscape:snap-bbox-midpoints="true"
     inkscape:zoom="0.34444444"
     inkscape:cx="2136.7742"
     inkscape:cy="643.06452"
     inkscape:window-width="1440"
     inkscape:window-height="869"
     inkscape:window-x="0"
     inkscape:window-y="0"
     inkscape:window-maximized="1"
     inkscape:current-layer="layer1"
     inkscape:snap-bbox-edge-midpoints="true"
     inkscape:bbox-paths="false"
     inkscape:bbox-nodes="true"
     inkscape:showpageshadow="2"
     inkscape:deskcolor="#545454"><inkscape:grid
       type="xygrid"
       id="grid824" /></sodipodi:namedview><defs
     id="defs2" /><g
     inkscape:label="Capa 1"
     inkscape:groupmode="layer"
     id="layer1"><rect
       style="fill:#dc682e;stroke-width:2;stroke-linecap:round;fill-opacity:1"
       id="rect848"
       width="2560"
       height="1440"
       x="0"
       y="0"
       ry="1" /><g
       inkscape:label="Capa 1"
       id="layer1-53"
       transform="translate(3109.7855,475.39097)"><g
         id="g1268"
         transform="matrix(3.22043,0,0,3.22043,-1882.28,-1006.6847)"><path
           d="m 87.740224,429.66358 89.792596,-103.02316 15.16323,27.10641 -30.34594,60.70486 62.87753,-71.56819 76.40793,84.696 c -36.77145,95.34339 -162.57126,111.49117 -219.102353,2.45684 z"
           fill="#ffffff"
           id="path598"
           style="fill:none;fill-opacity:1;stroke:#622b10;stroke-width:10.8;stroke-linecap:round;stroke-linejoin:round;stroke-dasharray:none;stroke-opacity:1"
           sodipodi:nodetypes="cccccccc" /><path
           d="m 85.364015,432.79278 89.792605,-103.02316 15.16323,27.10641 -30.34594,60.70486 62.87753,-71.56819 77.304,85.14078 C 254.22389,522.7888 138.32083,535.1629 85.357526,432.78143 Z"
           fill="#ffffff"
           id="path243"
           style="fill:none;fill-opacity:1;stroke:#a94a1d;stroke-width:10.8;stroke-linecap:round;stroke-linejoin:round;stroke-dasharray:none;stroke-opacity:1"
           sodipodi:nodetypes="cccccccc" /><path
           id="path34544-5"
           style="fill:#622b10;fill-opacity:1;stroke-width:5"
           d="m 192,275 c -66.47979,0 -120,53.52022 -120,120 0,66.47979 53.52021,120 120,120 66.47978,0 120,-53.52021 120,-120 0,-66.47978 -53.52022,-120 -120,-120 z m 0,10 c 60.93988,0 110,49.06011 110,110 0,60.93989 -49.06012,110 -110,110 C 131.06011,505 82,455.93989 82,395 82,334.06011 131.06011,285 192,285 Z"
           sodipodi:nodetypes="ssssssssss" /><path
           id="rect281-6"
           style="fill:#a94a1d;fill-opacity:1;stroke-width:5"
           d="m 192,270 c -66.47979,0 -120,53.52022 -120,120 0,66.47979 53.52021,120 120,120 66.47978,0 120,-53.52021 120,-120 0,-66.47978 -53.52022,-120 -120,-120 z m 0,10 c 60.93988,0 110,49.06011 110,110 0,60.93989 -49.06012,110 -110,110 C 131.06011,500 82,450.93989 82,390 82,329.06011 131.06011,280 192,280 Z m 0,30 c -128,-206.66667 -64,-103.33333 0,0 z"
           sodipodi:nodetypes="sssssssssscc" /></g></g></g></svg>
