<?xml version="1.0" encoding="UTF-8" standalone="no"?>
<!-- Created with Inkscape (http://www.inkscape.org/) -->

<svg
   width="2560"
   height="1440"
   viewBox="0 0 2560 1440"
   version="1.1"
   id="svg5"
   inkscape:version="1.3.2 (091e20ef0f, 2023-11-25, custom)"
   sodipodi:docname="lxqt.svg"
   inkscape:export-filename="/home/doubleau/Imágenes/Wallpapers/BI.png"
   inkscape:export-xdpi="90"
   inkscape:export-ydpi="90"
   xml:space="preserve"
   xmlns:inkscape="http://www.inkscape.org/namespaces/inkscape"
   xmlns:sodipodi="http://sodipodi.sourceforge.net/DTD/sodipodi-0.dtd"
   xmlns="http://www.w3.org/2000/svg"
   xmlns:svg="http://www.w3.org/2000/svg"><sodipodi:namedview
     id="namedview7"
     pagecolor="#ffffff"
     bordercolor="#666666"
     borderopacity="1.0"
     inkscape:pageshadow="2"
     inkscape:pageopacity="0.0"
     inkscape:pagecheckerboard="0"
     inkscape:document-units="px"
     showgrid="false"
     inkscape:snap-bbox="true"
     inkscape:snap-bbox-midpoints="true"
     inkscape:zoom="0.34444444"
     inkscape:cx="1589.5161"
     inkscape:cy="1604.0323"
     inkscape:window-width="1384"
     inkscape:window-height="860"
     inkscape:window-x="0"
     inkscape:window-y="0"
     inkscape:window-maximized="1"
     inkscape:current-layer="layer1"
     inkscape:snap-bbox-edge-midpoints="true"
     inkscape:bbox-paths="false"
     inkscape:bbox-nodes="true"
     inkscape:showpageshadow="2"
     inkscape:deskcolor="#d1d1d1"><inkscape:grid
       type="xygrid"
       id="grid824"
       originx="0"
       originy="0"
       spacingy="1"
       spacingx="1"
       units="px"
       visible="false" /></sodipodi:namedview><defs
     id="defs2" /><g
     inkscape:label="Capa 1"
     inkscape:groupmode="layer"
     id="layer1"><rect
       style="fill:#0192d3;stroke-width:2;stroke-linecap:round;fill-opacity:1"
       id="rect848"
       width="2560"
       height="1440"
       x="0"
       y="0"
       ry="1" /><g
       inkscape:label="Capa 1"
       id="layer1-5"
       transform="matrix(3.2132726,0,0,3.2132726,990.29034,1016.3774)"><path
         id="path34544"
         style="fill:#014a6b;fill-opacity:1;stroke-width:5"
         d="m 192,275 c -66.47979,0 -120,53.52022 -120,120 0,66.47979 53.52021,120 120,120 66.47978,0 120,-53.52021 120,-120 0,-66.47978 -53.52022,-120 -120,-120 z m 0,10 c 60.93988,0 110,49.06011 110,110 0,60.93989 -49.06012,110 -110,110 C 131.06011,505 82,455.93989 82,395 82,334.06011 131.06011,285 192,285 Z"
         sodipodi:nodetypes="ssssssssss" /><path
         id="rect281"
         style="fill:#0172a4;fill-opacity:1;stroke-width:5"
         d="m 192,270 c -66.47979,0 -120,53.52022 -120,120 0,66.47979 53.52021,120 120,120 66.47978,0 120,-53.52021 120,-120 0,-66.47978 -53.52022,-120 -120,-120 z m 0,10 c 60.93988,0 110,49.06011 110,110 0,60.93989 -49.06012,110 -110,110 C 131.06011,500 82,450.93989 82,390 82,329.06011 131.06011,280 192,280 Z m 0,30 c -128,-206.66667 -64,-103.33333 0,0 z"
         sodipodi:nodetypes="sssssssssscc" /><g
         id="g6529"
         transform="matrix(0.27074159,0,0,0.27074159,95.013206,285.33335)"
         style="fill:none;fill-opacity:1;stroke:#014a6b;stroke-width:14.7742;stroke-linecap:round;stroke-linejoin:round;stroke-dasharray:none;stroke-opacity:1"><path
           id="path6521"
           style="fill:none;fill-opacity:1;stroke:#014a6b;stroke-width:14.7742;stroke-linecap:round;stroke-linejoin:round;stroke-dasharray:none;stroke-opacity:1"
           d="m 365.66048,306.69539 c -48.36408,-42.1338 -33.97765,-129.44145 25.34475,-153.82948 45.60893,-22.44307 106.02457,0.53097 125.31855,47.51503 50.48404,13.14492 100.96807,26.28985 151.45211,39.43477 -60.73859,0 -121.47723,0 -182.21582,0 -17.47522,-36.69912 -66.55394,-52.30161 -99.74074,-27.15339 -30.16331,19.86532 -39.49113,63.53502 -20.15885,94.03307 z" /><path
           id="path6523"
           style="fill:none;fill-opacity:1;stroke:#014a6b;stroke-width:14.7742;stroke-linecap:round;stroke-linejoin:round;stroke-dasharray:none;stroke-opacity:1"
           d="M 396.31943,372.67555 C 323.39804,310.97284 250.47665,249.27013 177.55526,187.56743 c -52.0362,50.45579 -41.33374,145.81066 20.76387,183.27509 13.53829,13.3904 64.26775,22.10719 60.49901,18.23668 -50.92027,-9.4083 -77.60014,-75.16317 -47.60685,-117.3717 61.70271,33.65601 123.40543,67.31203 185.10814,100.96805 z" /><path
           id="path6525"
           style="fill:none;fill-opacity:1;stroke:#014a6b;stroke-width:14.7742;stroke-linecap:round;stroke-linejoin:round;stroke-dasharray:none;stroke-opacity:1"
           d="M 385.25569,417.34829 C 312.3343,394.91095 239.41291,372.47361 166.49152,350.03626 c -19.96351,65.66505 39.56867,137.38542 107.5518,130.60092 17.94108,-0.19179 63.8836,-15.79991 22.67901,-13.56629 -37.68865,-5.4444 -68.69287,-39.04718 -71.06984,-77.06811 53.20107,9.11517 106.40213,18.23034 159.6032,27.34551 z" /><path
           id="path6527"
           style="fill:none;fill-opacity:1;stroke:#014a6b;stroke-width:14.7742;stroke-linecap:round;stroke-linejoin:round;stroke-dasharray:none;stroke-opacity:1"
           d="m 508.05082,288.22653 c -31.91963,36.1147 -15.82584,86.96164 2.31226,125.40336 18.05487,36.90458 25.3959,86.38653 -6.43258,118.27464 -42.52626,44.75662 -115.18645,44.64796 -167.70809,18.76715 0.22262,45.64263 0.44572,91.28526 0.66838,136.92789 11.41066,-22.70246 22.82132,-45.40492 34.23198,-68.10737 81.19071,25.3896 185.33701,-20.44377 203.38765,-107.80685 17.08549,-83.33602 -71.6611,-141.93011 -66.46273,-223.45882" /></g><g
         id="g5190"
         transform="matrix(0.27074159,0,0,0.27074159,92.545119,282.39954)"
         style="fill:none;stroke:#0172a4;stroke-width:14.7742;stroke-linecap:round;stroke-linejoin:round;stroke-dasharray:none;stroke-opacity:1"><path
           id="path4-3"
           style="fill:none;fill-opacity:1;stroke:#0172a4;stroke-width:14.7742;stroke-linecap:round;stroke-linejoin:round;stroke-dasharray:none;stroke-opacity:1"
           d="m 365.66048,306.69539 c -48.36408,-42.1338 -33.97765,-129.44145 25.34475,-153.82948 45.60893,-22.44307 106.02457,0.53097 125.31855,47.51503 50.48404,13.14492 100.96807,26.28985 151.45211,39.43477 -60.73859,0 -121.47723,0 -182.21582,0 -17.47522,-36.69912 -66.55394,-52.30161 -99.74074,-27.15339 -30.16331,19.86532 -39.49113,63.53502 -20.15885,94.03307 z" /><path
           id="path6-6"
           style="fill:none;fill-opacity:1;stroke:#0172a4;stroke-width:14.7742;stroke-linecap:round;stroke-linejoin:round;stroke-dasharray:none;stroke-opacity:1"
           d="M 396.31943,372.67555 C 323.39804,310.97284 250.47665,249.27013 177.55526,187.56743 c -52.0362,50.45579 -41.33374,145.81066 20.76387,183.27509 13.53829,13.3904 64.26775,22.10719 60.49901,18.23668 -50.92027,-9.4083 -77.60014,-75.16317 -47.60685,-117.3717 61.70271,33.65601 123.40543,67.31203 185.10814,100.96805 z" /><path
           id="path8-7"
           style="fill:none;fill-opacity:1;stroke:#0172a4;stroke-width:14.7742;stroke-linecap:round;stroke-linejoin:round;stroke-dasharray:none;stroke-opacity:1"
           d="M 385.25569,417.34829 C 312.3343,394.91095 239.41291,372.47361 166.49152,350.03626 c -19.96351,65.66505 39.56867,137.38542 107.5518,130.60092 17.94108,-0.19179 63.8836,-15.79991 22.67901,-13.56629 -37.68865,-5.4444 -68.08756,-42.87426 -70.46453,-80.89519 z"
           sodipodi:nodetypes="cccccc" /><path
           id="path10"
           style="fill:none;fill-opacity:1;stroke:#0172a4;stroke-width:14.7742;stroke-linecap:round;stroke-linejoin:round;stroke-dasharray:none;stroke-opacity:1"
           d="m 508.05082,288.22653 c -31.91963,36.1147 -15.82584,86.96164 2.31226,125.40336 18.05487,36.90458 25.3959,86.38653 -6.43258,118.27464 -42.52626,44.75662 -115.18645,44.64796 -167.70809,18.76715 0.22262,45.64263 0.44572,91.28526 0.66838,136.92789 11.41066,-22.70246 22.82132,-45.40492 34.23198,-68.10737 81.19071,25.3896 185.33701,-20.44377 203.38765,-107.80685 17.08549,-83.33602 -71.6611,-141.93011 -66.46273,-223.45882" /></g></g></g></svg>
