<?xml version="1.0" encoding="UTF-8" standalone="no"?>
<!-- Created with Inkscape (http://www.inkscape.org/) -->

<svg
   width="240"
   height="245"
   viewBox="0 0 240 245"
   version="1.1"
   id="svg5"
   inkscape:version="1.4.2 (ebf0e940d0, 2025-05-08)"
   sodipodi:docname="basics.svg"
   xmlns:inkscape="http://www.inkscape.org/namespaces/inkscape"
   xmlns:sodipodi="http://sodipodi.sourceforge.net/DTD/sodipodi-0.dtd"
   xmlns="http://www.w3.org/2000/svg"
   xmlns:svg="http://www.w3.org/2000/svg">
  <sodipodi:namedview
     id="namedview7"
     pagecolor="#ffffff"
     bordercolor="#000000"
     borderopacity="0.25"
     inkscape:showpageshadow="2"
     inkscape:pageopacity="0.0"
     inkscape:pagecheckerboard="0"
     inkscape:deskcolor="#d1d1d1"
     inkscape:document-units="px"
     showgrid="false"
     inkscape:zoom="0.82864076"
     inkscape:cx="236.53193"
     inkscape:cy="118.26597"
     inkscape:window-width="1420"
     inkscape:window-height="855"
     inkscape:window-x="0"
     inkscape:window-y="0"
     inkscape:window-maximized="1"
     inkscape:current-layer="layer1">
    <inkscape:grid
       type="xygrid"
       id="grid3875"
       originx="-72"
       originy="-270"
       spacingy="1"
       spacingx="1"
       units="px" />
  </sodipodi:namedview>
  <defs
     id="defs2" />
  <g
     inkscape:label="Capa 1"
     inkscape:groupmode="layer"
     id="layer1"
     transform="translate(-72,-270)">
    <rect
       style="opacity:1;fill:#43a64f;fill-opacity:1;stroke-width:0.510026"
       id="rect3929"
       width="400"
       height="700"
       x="0"
       y="0"
       ry="2.6923077" />
    <path
       id="rect281"
       style="fill:#29382a;fill-opacity:1;stroke-width:5"
       d="m 192,275 c -66.47978,0 -120,53.52022 -120,120 0,66.47978 53.52022,120 120,120 66.47978,0 120,-53.52022 120,-120 0,-66.47978 -53.52022,-120 -120,-120 z m 0,10 c 60.93989,0 110,49.06011 110,110 0,60.93989 -49.06011,110 -110,110 C 131.06011,505 82,455.93989 82,395 82,334.06011 131.06011,285 192,285 Z m -45,35 c -11.07999,0 -20,8.92001 -20,20 v 40 c 0,11.07999 8.92001,20 20,20 h 40 c 11.07999,0 20,-8.92001 20,-20 v -40 c 0,-11.07999 -8.92001,-20 -20,-20 z m 0,10 h 40 c 5.53999,0 10,4.46001 10,10 v 40 c 0,5.53999 -4.46001,10 -10,10 h -40 c -5.53999,0 -10,-4.46001 -10,-10 v -40 c 0,-5.53999 4.46001,-10 10,-10 z m 90,25 c -11.07999,0 -20,8.92001 -20,20 v 20 c 0,11.07999 8.92001,20 20,20 h 20 c 11.07999,0 20,-8.92001 20,-20 v -20 c 0,-11.07999 -8.92001,-20 -20,-20 z m 0,10 h 20 c 5.53999,0 10,4.46001 10,10 v 20 c 0,5.53999 -4.46001,10 -10,10 h -20 c -5.53999,0 -10,-4.46001 -10,-10 v -20 c 0,-5.53999 4.46001,-10 10,-10 z m -60,45 c -11.07999,0 -20,8.92001 -20,20 v 20 c 0,11.07999 8.92001,20 20,20 h 20 c 11.07999,0 20,-8.92001 20,-20 v -20 c 0,-11.07999 -8.92001,-20 -20,-20 z m 0,10 h 20 c 5.53999,0 10,4.46001 10,10 v 20 c 0,5.53999 -4.46001,10 -10,10 h -20 c -5.53999,0 -10,-4.46001 -10,-10 v -20 c 0,-5.53999 4.46001,-10 10,-10 z" />
    <path
       id="path29603"
       style="fill:#2e4631;fill-opacity:1;stroke-width:5"
       d="m 192,270 c -66.47978,0 -120,53.52022 -120,120 0,66.47978 53.52022,120 120,120 66.47978,0 120,-53.52022 120,-120 0,-66.47978 -53.52022,-120 -120,-120 z m 0,10 c 60.93989,0 110,49.06011 110,110 0,60.93989 -49.06011,110 -110,110 C 131.06011,500 82,450.93989 82,390 82,329.06011 131.06011,280 192,280 Z m -45,35 c -11.07999,0 -20,8.92001 -20,20 v 40 c 0,11.07999 8.92001,20 20,20 h 40 c 11.07999,0 20,-8.92001 20,-20 v -40 c 0,-11.07999 -8.92001,-20 -20,-20 z m 0,10 h 40 c 5.53999,0 10,4.46001 10,10 v 40 c 0,5.53999 -4.46001,10 -10,10 h -40 c -5.53999,0 -10,-4.46001 -10,-10 v -40 c 0,-5.53999 4.46001,-10 10,-10 z m 90,25 c -11.07999,0 -20,8.92001 -20,20 v 20 c 0,11.07999 8.92001,20 20,20 h 20 c 11.07999,0 20,-8.92001 20,-20 v -20 c 0,-11.07999 -8.92001,-20 -20,-20 z m 0,10 h 20 c 5.53999,0 10,4.46001 10,10 v 20 c 0,5.53999 -4.46001,10 -10,10 h -20 c -5.53999,0 -10,-4.46001 -10,-10 v -20 c 0,-5.53999 4.46001,-10 10,-10 z m -60,45 c -11.07999,0 -20,8.92001 -20,20 v 20 c 0,11.07999 8.92001,20 20,20 h 20 c 11.07999,0 20,-8.92001 20,-20 v -20 c 0,-11.07999 -8.92001,-20 -20,-20 z m 0,10 h 20 c 5.53999,0 10,4.46001 10,10 v 20 c 0,5.53999 -4.46001,10 -10,10 h -20 c -5.53999,0 -10,-4.46001 -10,-10 v -20 c 0,-5.53999 4.46001,-10 10,-10 z" />
  </g>
</svg>
