<?xml version="1.0" encoding="UTF-8" standalone="no"?>
<!-- Created with Inkscape (http://www.inkscape.org/) -->

<svg
   width="240"
   height="245"
   viewBox="0 0 240 245"
   version="1.1"
   id="svg5"
   inkscape:version="1.4.2 (ebf0e940d0, 2025-05-08)"
   sodipodi:docname="repos.svg"
   xmlns:inkscape="http://www.inkscape.org/namespaces/inkscape"
   xmlns:sodipodi="http://sodipodi.sourceforge.net/DTD/sodipodi-0.dtd"
   xmlns="http://www.w3.org/2000/svg"
   xmlns:svg="http://www.w3.org/2000/svg">
  <sodipodi:namedview
     id="namedview7"
     pagecolor="#ffffff"
     bordercolor="#000000"
     borderopacity="0.25"
     inkscape:showpageshadow="2"
     inkscape:pageopacity="0.0"
     inkscape:pagecheckerboard="0"
     inkscape:deskcolor="#d1d1d1"
     inkscape:document-units="px"
     showgrid="false"
     inkscape:zoom="0.5859375"
     inkscape:cx="249.17333"
     inkscape:cy="120.32"
     inkscape:window-width="1420"
     inkscape:window-height="855"
     inkscape:window-x="0"
     inkscape:window-y="0"
     inkscape:window-maximized="1"
     inkscape:current-layer="layer1">
    <inkscape:grid
       type="xygrid"
       id="grid3875"
       originx="-72"
       originy="-270"
       spacingy="1"
       spacingx="1"
       units="px" />
  </sodipodi:namedview>
  <defs
     id="defs2" />
  <g
     inkscape:label="Capa 1"
     inkscape:groupmode="layer"
     id="layer1"
     transform="translate(-72,-270)">
    <path
       id="path34544"
       style="fill:#29382a;fill-opacity:1;stroke-width:5"
       d="m 192,275 c -66.47979,0 -120,53.52022 -120,120 0,66.47979 53.52021,120 120,120 66.47978,0 120,-53.52021 120,-120 0,-66.47978 -53.52022,-120 -120,-120 z m 0,10 c 60.93988,0 110,49.06011 110,110 0,60.93989 -49.06012,110 -110,110 C 131.06011,505 82,455.93989 82,395 82,334.06011 131.06011,285 192,285 Z m 0,30 c -13.84994,0 -25,11.15007 -25,25 v 25 a 5,5 0 0 1 -5,5 h -25 c -13.84994,0 -25,11.15007 -25,25 0,13.84994 11.15006,25 25,25 h 25 a 5,5 0 0 1 5,5 v 25 c 0,13.84994 11.15006,25 25,25 13.84993,0 25,-11.15006 25,-25 v -25 a 5,5 0 0 1 5,-5 h 25 c 13.84993,0 25,-11.15006 25,-25 0,-13.84993 -11.15007,-25 -25,-25 h -25 a 5,5 0 0 1 -5,-5 v -25 c 0,-13.84993 -11.15007,-25 -25,-25 z m 0,10 c 8.30994,0 15,6.69006 15,15 v 25 a 15,15 0 0 0 15,15 h 25 c 8.30994,0 15,6.69006 15,15 0,8.30994 -6.69006,15 -15,15 h -25 a 15,15 0 0 0 -15,15 v 25 c 0,8.30994 -6.69006,15 -15,15 -8.30995,0 -15,-6.69006 -15,-15 v -25 a 15,15 0 0 0 -15,-15 h -25 c -8.30995,0 -15,-6.69006 -15,-15 0,-8.30994 6.69005,-15 15,-15 h 25 a 15,15 0 0 0 15,-15 v -25 c 0,-8.30994 6.69005,-15 15,-15 z" />
    <path
       id="rect281"
       style="fill:#2e4631;fill-opacity:1;stroke-width:5"
       d="m 192,270 c -66.47979,0 -120,53.52022 -120,120 0,66.47979 53.52021,120 120,120 66.47978,0 120,-53.52021 120,-120 0,-66.47978 -53.52022,-120 -120,-120 z m 0,10 c 60.93988,0 110,49.06011 110,110 0,60.93989 -49.06012,110 -110,110 C 131.06011,500 82,450.93989 82,390 82,329.06011 131.06011,280 192,280 Z m 0,30 c -13.84994,0 -25,11.15007 -25,25 v 25 a 5,5 0 0 1 -5,5 h -25 c -13.84994,0 -25,11.15007 -25,25 0,13.84994 11.15006,25 25,25 h 25 a 5,5 0 0 1 5,5 v 25 c 0,13.84994 11.15006,25 25,25 13.84993,0 25,-11.15006 25,-25 v -25 a 5,5 0 0 1 5,-5 h 25 c 13.84993,0 25,-11.15006 25,-25 0,-13.84993 -11.15007,-25 -25,-25 h -25 a 5,5 0 0 1 -5,-5 v -25 c 0,-13.84993 -11.15007,-25 -25,-25 z m 0,10 c 8.30994,0 15,6.69006 15,15 v 25 a 15,15 0 0 0 15,15 h 25 c 8.30994,0 15,6.69006 15,15 0,8.30994 -6.69006,15 -15,15 h -25 a 15,15 0 0 0 -15,15 v 25 c 0,8.30994 -6.69006,15 -15,15 -8.30995,0 -15,-6.69006 -15,-15 v -25 a 15,15 0 0 0 -15,-15 h -25 c -8.30995,0 -15,-6.69006 -15,-15 0,-8.30994 6.69005,-15 15,-15 h 25 a 15,15 0 0 0 15,-15 v -25 c 0,-8.30994 6.69005,-15 15,-15 z" />
  </g>
</svg>
