<?xml version="1.0" encoding="UTF-8" standalone="no"?>
<!-- Created with Inkscape (http://www.inkscape.org/) -->

<svg
   width="240"
   height="245"
   viewBox="0 0 240 245"
   version="1.1"
   id="svg5"
   inkscape:version="1.4.2 (ebf0e940d0, 2025-05-08)"
   sodipodi:docname="rolling.svg"
   xmlns:inkscape="http://www.inkscape.org/namespaces/inkscape"
   xmlns:sodipodi="http://sodipodi.sourceforge.net/DTD/sodipodi-0.dtd"
   xmlns="http://www.w3.org/2000/svg"
   xmlns:svg="http://www.w3.org/2000/svg">
  <sodipodi:namedview
     id="namedview7"
     pagecolor="#ffffff"
     bordercolor="#000000"
     borderopacity="0.25"
     inkscape:showpageshadow="2"
     inkscape:pageopacity="0.0"
     inkscape:pagecheckerboard="0"
     inkscape:deskcolor="#d1d1d1"
     inkscape:document-units="px"
     showgrid="false"
     inkscape:zoom="0.5859375"
     inkscape:cx="242.34667"
     inkscape:cy="119.46667"
     inkscape:window-width="1420"
     inkscape:window-height="855"
     inkscape:window-x="0"
     inkscape:window-y="0"
     inkscape:window-maximized="1"
     inkscape:current-layer="layer1">
    <inkscape:grid
       type="xygrid"
       id="grid3875"
       originx="-72"
       originy="-270"
       spacingy="1"
       spacingx="1"
       units="px" />
  </sodipodi:namedview>
  <defs
     id="defs2" />
  <g
     inkscape:label="Capa 1"
     inkscape:groupmode="layer"
     id="layer1"
     transform="translate(-72,-270)">
    <rect
       style="opacity:1;fill:#43a64f;fill-opacity:1;stroke-width:0.510026"
       id="rect3929"
       width="400"
       height="700"
       x="0"
       y="0"
       ry="2.6923077" />
    <path
       id="path32497"
       style="fill:#29382a;fill-opacity:1;stroke-width:5"
       d="m 192,275 c -66.47979,0 -120,53.52021 -120,120 0,66.47978 53.52021,120 120,120 66.47978,0 120,-53.52022 120,-120 0,-66.47979 -53.52022,-120 -120,-120 z m 0,10 c 60.93989,0 110,49.06011 110,110 0,60.93989 -49.06011,110 -110,110 C 131.06011,505 82,455.93989 82,395 82,334.06011 131.06011,285 192,285 Z m 0,26.28906 c -7.62899,0 -14.9667,2.9295 -20.49805,8.18359 L 128.25,360.5664 C 115.18256,372.98749 123.97112,394.9963 142,395 h 10 c 5.52284,0 10,4.47715 10,10 v 40 c 0,16.61993 13.38006,30 30,30 16.61993,0 30,-13.38007 30,-30 v -40 c 0,-5.52285 4.47715,-10 10,-10 h 15 c 16.23218,4.5e-4 24.14348,-19.81846 12.37305,-30.9961 l -46.875,-44.53125 C 206.9667,314.21856 199.62899,311.28906 192,311.28906 Z m 0,9.28711 c 3.83544,5e-5 7.52798,1.45537 10.33203,4.07227 l 50.04883,46.70898 C 257.6054,376.24057 254.15129,384.9981 247,385 h -15 c -11.04569,0 -20,8.95431 -20,20 v 40 c 0,11.07994 -8.92006,20 -20,20 -11.07994,0 -20,-8.92006 -20,-20 v -40 c 0,-11.04569 -8.95431,-20 -20,-20 h -10 c -8.94459,-0.002 -13.2601,-10.96 -6.71875,-17.06055 l 46.38672,-43.29101 c 2.80404,-2.6169 6.49658,-4.07222 10.33203,-4.07227 z" />
    <path
       id="rect281-7"
       style="fill:#2e4631;fill-opacity:1;stroke-width:5"
       d="m 192,270 c -66.47979,0 -120,53.52021 -120,120 0,66.47978 53.52021,120 120,120 66.47978,0 120,-53.52022 120,-120 0,-66.47979 -53.52022,-120 -120,-120 z m 0,10 c 60.93989,0 110,49.06011 110,110 0,60.93989 -49.06011,110 -110,110 C 131.06011,500 82,450.93989 82,390 82,329.06011 131.06011,280 192,280 Z m 0,26.28906 c -7.62899,0 -14.9667,2.9295 -20.49805,8.18359 L 128.25,355.5664 C 115.18256,367.98749 123.97112,389.9963 142,390 h 10 c 5.52284,0 10,4.47715 10,10 v 40 c 0,16.61993 13.38006,30 30,30 16.61993,0 30,-13.38007 30,-30 v -40 c 0,-5.52285 4.47715,-10 10,-10 h 15 c 16.23218,4.5e-4 24.14348,-19.81846 12.37305,-30.9961 l -46.875,-44.53125 C 206.9667,309.21856 199.62899,306.28906 192,306.28906 Z m 0,9.28711 c 3.83544,5e-5 7.52798,1.45537 10.33203,4.07227 l 50.04883,46.70898 C 257.6054,371.24057 254.15129,379.9981 247,380 h -15 c -11.04569,0 -20,8.95431 -20,20 v 40 c 0,11.07994 -8.92006,20 -20,20 -11.07994,0 -20,-8.92006 -20,-20 v -40 c 0,-11.04569 -8.95431,-20 -20,-20 h -10 c -8.94459,-0.002 -13.2601,-10.96 -6.71875,-17.06055 l 46.38672,-43.29101 c 2.80404,-2.6169 6.49658,-4.07222 10.33203,-4.07227 z" />
  </g>
</svg>
