<?xml version="1.0" encoding="UTF-8" standalone="no"?>
<!-- Created with Inkscape (http://www.inkscape.org/) -->

<svg
   width="240"
   height="245"
   viewBox="0 0 240 245"
   version="1.1"
   id="svg5"
   inkscape:version="1.4.2 (ebf0e940d0, 2025-05-08)"
   sodipodi:docname="secure.svg"
   xmlns:inkscape="http://www.inkscape.org/namespaces/inkscape"
   xmlns:sodipodi="http://sodipodi.sourceforge.net/DTD/sodipodi-0.dtd"
   xmlns="http://www.w3.org/2000/svg"
   xmlns:svg="http://www.w3.org/2000/svg">
  <sodipodi:namedview
     id="namedview7"
     pagecolor="#ffffff"
     bordercolor="#000000"
     borderopacity="0.25"
     inkscape:showpageshadow="2"
     inkscape:pageopacity="0.0"
     inkscape:pagecheckerboard="0"
     inkscape:deskcolor="#d1d1d1"
     inkscape:document-units="px"
     showgrid="false"
     inkscape:zoom="0.5859375"
     inkscape:cx="169.81333"
     inkscape:cy="120.32"
     inkscape:window-width="1420"
     inkscape:window-height="855"
     inkscape:window-x="0"
     inkscape:window-y="0"
     inkscape:window-maximized="1"
     inkscape:current-layer="layer1">
    <inkscape:grid
       type="xygrid"
       id="grid3875"
       originx="-72"
       originy="-270"
       spacingy="1"
       spacingx="1"
       units="px" />
  </sodipodi:namedview>
  <defs
     id="defs2" />
  <g
     inkscape:label="Capa 1"
     inkscape:groupmode="layer"
     id="layer1"
     transform="translate(-72,-270)">
    <rect
       style="opacity:1;fill:#43a64f;fill-opacity:1;stroke-width:0.510026"
       id="rect3929"
       width="400"
       height="700"
       x="0"
       y="0"
       ry="2.6923077" />
    <path
       id="path35741"
       style="fill:#29382a;fill-opacity:1;stroke-width:5"
       d="m 192,275 c -66.47978,0 -120,53.5202 -120,120 0,66.47981 53.52022,120 120,120 66.47979,0 120,-53.52019 120,-120 0,-66.4798 -53.52021,-120 -120,-120 z m 0,10 c 60.93989,0 110,49.06012 110,110 0,60.93988 -49.06011,110 -110,110 C 131.06011,505 82,455.93988 82,395 82,334.06012 131.06011,285 192,285 Z m 0,30 c -19.38993,0 -35,15.61008 -35,35 0,14.01167 8.15992,26.03333 20,31.63086 V 460 c 0,8.30993 6.69006,15 15,15 8.30995,0 15,-6.69007 15,-15 v -10 h 20 c 8.30995,0 15,-6.69008 15,-15 0,-8.30992 -6.69005,-15 -15,-15 h -20 v -5 h 10 c 8.30995,0 15,-6.69008 15,-15 0,-8.30992 -6.69005,-15 -15,-15 h -10 v -3.36914 c 11.84009,-5.59753 20,-17.61919 20,-31.63086 0,-19.38992 -15.61007,-35 -35,-35 z m 0,10 c 13.84994,0 25,11.15006 25,25 0,12.13594 -8.56306,22.19713 -20,24.50196 V 380 384.63867 395 h 10 10 c 2.76995,0 5,2.23004 5,5 0,2.76997 -2.23005,5 -5,5 h -10 -10 v 25 h 10 10 10 c 2.76995,0 5,2.23004 5,5 0,2.76997 -2.23005,5 -5,5 h -10 -10 -10 v 20 c 0,2.76997 -2.23005,5 -5,5 -2.76994,0 -5,-2.23003 -5,-5 V 440 430 384.63867 380 374.50196 C 175.56307,372.19713 167,362.13594 167,350 c 0,-13.84994 11.15007,-25 25,-25 z" />
    <path
       id="rect281-5"
       style="fill:#2e4631;fill-opacity:1;stroke-width:5"
       d="m 192,270 c -66.47978,0 -120,53.5202 -120,120 0,66.47981 53.52022,120 120,120 66.47979,0 120,-53.52019 120,-120 0,-66.4798 -53.52021,-120 -120,-120 z m 0,10 c 60.93989,0 110,49.06012 110,110 0,60.93988 -49.06011,110 -110,110 C 131.06011,500 82,450.93988 82,390 82,329.06012 131.06011,280 192,280 Z m 0,30 c -19.38993,0 -35,15.61008 -35,35 0,14.01167 8.15992,26.03333 20,31.63086 V 455 c 0,8.30993 6.69006,15 15,15 8.30995,0 15,-6.69007 15,-15 v -10 h 20 c 8.30995,0 15,-6.69008 15,-15 0,-8.30992 -6.69005,-15 -15,-15 h -20 v -5 h 10 c 8.30995,0 15,-6.69008 15,-15 0,-8.30992 -6.69005,-15 -15,-15 h -10 v -3.36914 c 11.84009,-5.59753 20,-17.61919 20,-31.63086 0,-19.38992 -15.61007,-35 -35,-35 z m 0,10 c 13.84994,0 25,11.15006 25,25 0,12.13594 -8.56306,22.19713 -20,24.50196 V 375 379.63867 390 h 10 10 c 2.76995,0 5,2.23004 5,5 0,2.76997 -2.23005,5 -5,5 h -10 -10 v 25 h 10 10 10 c 2.76995,0 5,2.23004 5,5 0,2.76997 -2.23005,5 -5,5 h -10 -10 -10 v 20 c 0,2.76997 -2.23005,5 -5,5 -2.76994,0 -5,-2.23003 -5,-5 V 435 425 379.63867 375 369.50196 C 175.56307,367.19713 167,357.13594 167,345 c 0,-13.84994 11.15007,-25 25,-25 z" />
  </g>
</svg>
