<?xml version="1.0" encoding="UTF-8" standalone="no"?>
<!-- Created with Inkscape (http://www.inkscape.org/) -->

<svg
   width="1991.9792"
   height="1042.1255"
   viewBox="0 0 1991.9793 1042.1255"
   version="1.1"
   id="svg5"
   xml:space="preserve"
   sodipodi:docname="baselogo.svg"
   inkscape:version="1.3.2 (091e20ef0f, 2023-11-25, custom)"
   xmlns:inkscape="http://www.inkscape.org/namespaces/inkscape"
   xmlns:sodipodi="http://sodipodi.sourceforge.net/DTD/sodipodi-0.dtd"
   xmlns="http://www.w3.org/2000/svg"
   xmlns:svg="http://www.w3.org/2000/svg"><sodipodi:namedview
     id="namedview1"
     pagecolor="#505050"
     bordercolor="#ffffff"
     borderopacity="1"
     inkscape:showpageshadow="0"
     inkscape:pageopacity="0"
     inkscape:pagecheckerboard="1"
     inkscape:deskcolor="#d1d1d1"
     inkscape:zoom="0.30374517"
     inkscape:cx="972.85498"
     inkscape:cy="740.75252"
     inkscape:window-width="1402"
     inkscape:window-height="867"
     inkscape:window-x="0"
     inkscape:window-y="0"
     inkscape:window-maximized="1"
     inkscape:current-layer="g8" /><defs
     id="defs2" /><text
     xml:space="preserve"
     style="font-style:normal;font-variant:normal;font-weight:bold;font-stretch:normal;font-size:463.32px;line-height:1;font-family:Roboto;-inkscape-font-specification:'Roboto, Bold';font-variant-ligatures:normal;font-variant-caps:normal;font-variant-numeric:normal;font-variant-east-asian:normal;fill:#a6a6a6;fill-opacity:1;stroke-width:171.357;stroke-linecap:round;stroke-linejoin:round"
     x="856.98102"
     y="806.42096"
     id="text1"><tspan
       sodipodi:role="line"
       id="tspan1"
       x="856.98102"
       y="806.42096"
       style="fill:#a6a6a6;fill-opacity:1;stroke-width:171.357">BASE</tspan></text><g
     inkscape:label="Capa 1"
     id="layer1-5"
     transform="matrix(3.2132726,0,0,3.2132726,-231.35563,-612.70985)"><path
       id="path34544"
       style="fill:#444444;fill-opacity:1;stroke-width:5"
       d="m 192,275 c -66.47979,0 -120,53.52022 -120,120 0,66.47979 53.52021,120 120,120 66.47978,0 120,-53.52021 120,-120 0,-66.47978 -53.52022,-120 -120,-120 z m 0,10 c 60.93988,0 110,49.06011 110,110 0,60.93989 -49.06012,110 -110,110 C 131.06011,505 82,455.93989 82,395 82,334.06011 131.06011,285 192,285 Z"
       sodipodi:nodetypes="ssssssssss" /><path
       id="rect281"
       style="fill:#999999;fill-opacity:1;stroke-width:5"
       d="m 192,270 c -66.47979,0 -120,53.52022 -120,120 0,66.47979 53.52021,120 120,120 66.47978,0 120,-53.52021 120,-120 0,-66.47978 -53.52022,-120 -120,-120 z m 0,10 c 60.93988,0 110,49.06011 110,110 0,60.93989 -49.06012,110 -110,110 C 131.06011,500 82,450.93989 82,390 82,329.06011 131.06011,280 192,280 Z m 0,30 c -128,-206.66667 -64,-103.33333 0,0 z"
       sodipodi:nodetypes="sssssssssscc" /></g><rect
     style="fill:#444444;fill-opacity:1;stroke-width:17.5392"
     width="210.50758"
     height="70.143929"
     x="403.80685"
     y="707.42297"
     rx="17.542299"
     ry="17.535982"
     id="rect1" /><rect
     style="fill:#444444;fill-opacity:1;stroke-width:17.5394"
     width="214.769"
     height="71.595497"
     x="-415.89389"
     y="685.62103"
     rx="17.890106"
     ry="17.890106"
     transform="matrix(0.72698157,-0.68665698,0.72698157,0.68665698,0,0)"
     id="rect2" /><rect
     style="fill:#4d4d4d;stroke-width:17.5394"
     width="214.769"
     height="71.595497"
     x="542.50018"
     y="-272.77304"
     rx="17.890106"
     ry="17.890106"
     transform="matrix(0.72698157,0.68665698,0.72698157,-0.68665698,0,0)"
     id="rect3" /><g
     inkscape:label="Image"
     id="g8"
     transform="matrix(8.7597221,0,0,8.7597221,135.58645,345.73797)"><rect
       style="fill:#999999;fill-opacity:1;stroke-width:2.00226"
       width="24.031309"
       height="8.0075521"
       x="29.793558"
       y="39.969719"
       rx="2.002609"
       ry="2.001888"
       id="rect10" /><rect
       style="fill:#999999;fill-opacity:1;stroke-width:2.00228"
       width="24.517786"
       height="8.1732616"
       x="-28.990799"
       y="37.354771"
       rx="2.0423143"
       ry="2.0423143"
       transform="matrix(0.72698157,-0.68665698,0.72698157,0.68665698,0,0)"
       id="rect14" /><rect
       style="fill:#999999;fill-opacity:1;stroke-width:2.00228"
       width="24.517786"
       height="8.1732616"
       x="21.016253"
       y="-12.652283"
       rx="2.0423143"
       ry="2.0423143"
       transform="matrix(0.72698157,0.68665698,0.72698157,-0.68665698,0,0)"
       id="rect18" /></g></svg>
