<?xml version="1.0" encoding="UTF-8" standalone="no"?>
<!-- Created with Inkscape (http://www.inkscape.org/) -->

<svg
   width="2560"
   height="1440"
   viewBox="0 0 2560 1440"
   version="1.1"
   id="svg5"
   inkscape:version="1.2.1 (9c6d41e410, 2022-07-14)"
   sodipodi:docname="download.svg"
   inkscape:export-filename="/home/doubleau/Imágenes/Wallpapers/BI.png"
   inkscape:export-xdpi="90"
   inkscape:export-ydpi="90"
   xmlns:inkscape="http://www.inkscape.org/namespaces/inkscape"
   xmlns:sodipodi="http://sodipodi.sourceforge.net/DTD/sodipodi-0.dtd"
   xmlns="http://www.w3.org/2000/svg"
   xmlns:svg="http://www.w3.org/2000/svg">
  <sodipodi:namedview
     id="namedview7"
     pagecolor="#ffffff"
     bordercolor="#666666"
     borderopacity="1.0"
     inkscape:pageshadow="2"
     inkscape:pageopacity="0.0"
     inkscape:pagecheckerboard="0"
     inkscape:document-units="px"
     showgrid="false"
     inkscape:snap-bbox="true"
     inkscape:snap-bbox-midpoints="true"
     inkscape:zoom="0.243559"
     inkscape:cx="1800.3851"
     inkscape:cy="829.36784"
     inkscape:window-width="1366"
     inkscape:window-height="699"
     inkscape:window-x="0"
     inkscape:window-y="0"
     inkscape:window-maximized="1"
     inkscape:current-layer="layer1"
     inkscape:snap-bbox-edge-midpoints="true"
     inkscape:bbox-paths="false"
     inkscape:bbox-nodes="true"
     inkscape:showpageshadow="2"
     inkscape:deskcolor="#d1d1d1">
    <inkscape:grid
       type="xygrid"
       id="grid824" />
  </sodipodi:namedview>
  <defs
     id="defs2" />
  <g
     inkscape:label="Capa 1"
     inkscape:groupmode="layer"
     id="layer1">
    <rect
       style="fill:#43a64f;stroke-width:2;stroke-linecap:round;fill-opacity:1"
       id="rect848"
       width="2560"
       height="1440"
       x="0"
       y="0"
       ry="1" />
    <path
       id="path23096"
       style="fill:#29382a;fill-opacity:1;stroke-width:16"
       d="m 1844,360 c -212.7358,0 -384,171.26473 -384,384 0,212.73539 171.2642,384 384,384 212.7358,0 384,-171.26461 384,-384 0,-212.73527 -171.2642,-384 -384,-384 z m 0,32 c 195.0078,0 352,156.9924 352,352 0,195.0077 -156.9922,352 -352,352 -195.0078,0 -352,-156.9923 -352,-352 0,-195.0076 156.9922,-352 352,-352 z m 0,240 c -62.0479,0 -112,49.95206 -112,112 0,62.04794 49.9521,112 112,112 62.0479,0 112,-49.95206 112,-112 0,-62.04794 -49.9521,-112 -112,-112 z m 0,32 c 44.32,0 80,35.68004 80,80 0,44.31996 -35.68,80 -80,80 -44.32,0 -80,-35.68004 -80,-80 0,-44.31996 35.68,-80 80,-80 z" />
    <path
       id="rect281"
       style="fill:#2e4631;fill-opacity:1;stroke-width:16"
       d="M 1844 340 C 1631.2642 340 1460 511.26473 1460 724 C 1460 936.73539 1631.2642 1108 1844 1108 C 2056.7358 1108 2228 936.73539 2228 724 C 2228 511.26473 2056.7358 340 1844 340 z M 1844 372 C 2039.0078 372 2196 528.9924 2196 724 C 2196 919.0077 2039.0078 1076 1844 1076 C 1648.9922 1076 1492 919.0077 1492 724 C 1492 528.9924 1648.9922 372 1844 372 z M 1844 612 C 1781.9521 612 1732 661.95206 1732 724 C 1732 786.04794 1781.9521 836 1844 836 C 1906.0479 836 1956 786.04794 1956 724 C 1956 661.95206 1906.0479 612 1844 612 z M 1844 644 C 1888.32 644 1924 679.68004 1924 724 C 1924 768.31996 1888.32 804 1844 804 C 1799.68 804 1764 768.31996 1764 724 C 1764 679.68004 1799.68 644 1844 644 z " />
  </g>
</svg>
