<?xml version="1.0" encoding="UTF-8" standalone="no"?>
<!-- Created with Inkscape (http://www.inkscape.org/) -->

<svg
   width="2560"
   height="1440"
   viewBox="0 0 2560 1440"
   version="1.1"
   id="svg5"
   inkscape:version="1.2.1 (9c6d41e410, 2022-07-14)"
   sodipodi:docname="fondo.svg"
   inkscape:export-filename="/home/doubleau/Imágenes/Wallpapers/BI.png"
   inkscape:export-xdpi="90"
   inkscape:export-ydpi="90"
   xmlns:inkscape="http://www.inkscape.org/namespaces/inkscape"
   xmlns:sodipodi="http://sodipodi.sourceforge.net/DTD/sodipodi-0.dtd"
   xmlns="http://www.w3.org/2000/svg"
   xmlns:svg="http://www.w3.org/2000/svg">
  <sodipodi:namedview
     id="namedview7"
     pagecolor="#ffffff"
     bordercolor="#666666"
     borderopacity="1.0"
     inkscape:pageshadow="2"
     inkscape:pageopacity="0.0"
     inkscape:pagecheckerboard="0"
     inkscape:document-units="px"
     showgrid="false"
     inkscape:snap-bbox="true"
     inkscape:snap-bbox-midpoints="true"
     inkscape:zoom="0.243559"
     inkscape:cx="1504.7689"
     inkscape:cy="829.36784"
     inkscape:window-width="1366"
     inkscape:window-height="699"
     inkscape:window-x="0"
     inkscape:window-y="0"
     inkscape:window-maximized="1"
     inkscape:current-layer="layer1"
     inkscape:snap-bbox-edge-midpoints="true"
     inkscape:bbox-paths="false"
     inkscape:bbox-nodes="true"
     inkscape:showpageshadow="2"
     inkscape:deskcolor="#d1d1d1">
    <inkscape:grid
       type="xygrid"
       id="grid824" />
  </sodipodi:namedview>
  <defs
     id="defs2" />
  <g
     inkscape:label="Capa 1"
     inkscape:groupmode="layer"
     id="layer1">
    <rect
       style="fill:#43a64f;stroke-width:2;stroke-linecap:round;fill-opacity:1"
       id="rect848"
       width="2560"
       height="1440"
       x="0"
       y="0"
       ry="1" />
    <path
       id="path15049"
       style="fill:#29382a;fill-opacity:1;stroke-width:16"
       d="m 1844,360 c -212.736,0 -384,171.264 -384,384 0,212.7344 171.264,384 384,384 212.7344,0 383.9984,-171.2656 384,-384 0,-212.736 -171.2656,-384 -384,-384 z m 0,32 c 195.0064,0 352,156.992 352,352 0,195.0064 -156.9936,352 -352,352 -195.008,0 -352,-156.9936 -352,-352 0,-195.008 156.992,-352 352,-352 z m 0,64 c -35.456,0 -64,28.544 -64,64 v 208 c 0,8.8352 -7.1648,16 -16,16 h -16 c -8.8368,0 -16.0016,-7.1648 -16,-16 V 584 c 0,-26.592 -21.4096,-48 -48,-48 -26.592,0 -48,21.408 -48,48 v 128 32 c 0,53.0176 42.9808,96 96,96 h 32 c 8.8352,0 16,7.1632 16,16 v 112 c 0,35.4544 28.544,64 64,64 35.4544,0 63.9984,-28.5456 64,-64 v -64 c 0,-8.8368 7.1632,-16 16,-16 h 32 c 53.0176,0 95.9984,-42.9824 96,-96 V 760 632 c 0,-26.592 -21.4096,-48 -48,-48 -26.592,0 -48,21.408 -48,48 v 144 a 16,16 0 0 1 -16,16 h -16 c -8.8368,0 -16.0016,-7.1648 -16,-16 V 520 c 0,-35.456 -28.5456,-64 -64,-64 z m 0,32 c 17.7264,0 32,14.272 32,32 v 256 c 0,26.5072 21.4912,48 48,48 h 16 a 48,48 0 0 0 48,-48 V 632 c 0,-8.864 7.136,-16 16,-16 8.8624,0 16,7.136 16,16 v 128 32 c 0,35.344 -28.656,64 -64,64 h -32 c -26.5088,0 -48,21.4912 -48,48 v 64 c 0,17.7264 -14.2736,32 -32,32 -17.728,0 -32,-14.2736 -32,-32 V 856 c 0,-26.5088 -21.4928,-48 -48,-48 h -32 c -35.3456,0 -64,-28.656 -64,-64 V 712 584 c 0,-8.864 7.136,-16 16,-16 8.8624,0 16,7.136 16,16 v 144 c 0,26.5088 21.4912,48 48,48 h 16 c 26.5072,0 47.9984,-21.4928 48,-48 V 520 c 0,-17.728 14.272,-32 32,-32 z" />
    <path
       id="rect281-3"
       style="fill:#2e4631;fill-opacity:1;stroke-width:16"
       d="m 1844,340 c -212.736,0 -384,171.264 -384,384 0,212.7344 171.264,384 384,384 212.7344,0 383.9984,-171.2656 384,-384 0,-212.736 -171.2656,-384 -384,-384 z m 0,32 c 195.0064,0 352,156.992 352,352 0,195.0064 -156.9936,352 -352,352 -195.008,0 -352,-156.9936 -352,-352 0,-195.008 156.992,-352 352,-352 z m 0,64 c -35.456,0 -64,28.544 -64,64 v 208 c 0,8.8352 -7.1648,16 -16,16 h -16 c -8.8368,0 -16.0016,-7.1648 -16,-16 V 564 c 0,-26.592 -21.4096,-48 -48,-48 -26.592,0 -48,21.408 -48,48 v 128 32 c 0,53.0176 42.9808,96 96,96 h 32 c 8.8352,0 16,7.1632 16,16 v 112 c 0,35.4544 28.544,64 64,64 35.4544,0 63.9984,-28.5456 64,-64 v -64 c 0,-8.8368 7.1632,-16 16,-16 h 32 c 53.0176,0 95.9984,-42.9824 96,-96 V 740 612 c 0,-26.592 -21.4096,-48 -48,-48 -26.592,0 -48,21.408 -48,48 v 144 a 16,16 0 0 1 -16,16 h -16 c -8.8368,0 -16.0016,-7.1648 -16,-16 V 500 c 0,-35.456 -28.5456,-64 -64,-64 z m 0,32 c 17.7264,0 32,14.272 32,32 v 256 c 0,26.5072 21.4912,48 48,48 h 16 a 48,48 0 0 0 48,-48 V 612 c 0,-8.864 7.136,-16 16,-16 8.8624,0 16,7.136 16,16 v 128 32 c 0,35.344 -28.656,64 -64,64 h -32 c -26.5088,0 -48,21.4912 -48,48 v 64 c 0,17.7264 -14.2736,32 -32,32 -17.728,0 -32,-14.2736 -32,-32 V 836 c 0,-26.5088 -21.4928,-48 -48,-48 h -32 c -35.3456,0 -64,-28.656 -64,-64 V 692 564 c 0,-8.864 7.136,-16 16,-16 8.8624,0 16,7.136 16,16 v 144 c 0,26.5088 21.4912,48 48,48 h 16 c 26.5072,0 47.9984,-21.4928 48,-48 V 500 c 0,-17.728 14.272,-32 32,-32 z" />
  </g>
</svg>
