<?xml version="1.0" encoding="UTF-8" standalone="no"?>
<!-- Created with Inkscape (http://www.inkscape.org/) -->

<svg
   width="2560"
   height="1440"
   viewBox="0 0 2560 1440"
   version="1.1"
   id="svg5"
   inkscape:version="1.2.1 (9c6d41e410, 2022-07-14)"
   sodipodi:docname="wiki.svg"
   inkscape:export-filename="/home/doubleau/Imágenes/Wallpapers/BI.png"
   inkscape:export-xdpi="90"
   inkscape:export-ydpi="90"
   xmlns:inkscape="http://www.inkscape.org/namespaces/inkscape"
   xmlns:sodipodi="http://sodipodi.sourceforge.net/DTD/sodipodi-0.dtd"
   xmlns="http://www.w3.org/2000/svg"
   xmlns:svg="http://www.w3.org/2000/svg">
  <sodipodi:namedview
     id="namedview7"
     pagecolor="#ffffff"
     bordercolor="#666666"
     borderopacity="1.0"
     inkscape:pageshadow="2"
     inkscape:pageopacity="0.0"
     inkscape:pagecheckerboard="0"
     inkscape:document-units="px"
     showgrid="false"
     inkscape:snap-bbox="true"
     inkscape:snap-bbox-midpoints="true"
     inkscape:zoom="0.243559"
     inkscape:cx="1213.2584"
     inkscape:cy="833.47361"
     inkscape:window-width="1366"
     inkscape:window-height="699"
     inkscape:window-x="0"
     inkscape:window-y="0"
     inkscape:window-maximized="1"
     inkscape:current-layer="layer1"
     inkscape:snap-bbox-edge-midpoints="true"
     inkscape:bbox-paths="false"
     inkscape:bbox-nodes="true"
     inkscape:showpageshadow="2"
     inkscape:deskcolor="#d1d1d1">
    <inkscape:grid
       type="xygrid"
       id="grid824" />
  </sodipodi:namedview>
  <defs
     id="defs2" />
  <g
     inkscape:label="Capa 1"
     inkscape:groupmode="layer"
     id="layer1">
    <rect
       style="fill:#43a64f;stroke-width:2;stroke-linecap:round;fill-opacity:1"
       id="rect848"
       width="2560"
       height="1440"
       x="0"
       y="0"
       ry="1" />
    <path
       id="path4355"
       style="fill:#29382a;fill-opacity:1;stroke-width:16"
       d="m 1844,360 c -212.7358,0 -384,171.26461 -384,384 0,212.73529 171.2642,384 384,384 212.7358,0 384,-171.26471 384,-384 0,-212.73539 -171.2642,-384 -384,-384 z m 0,32 c 195.0078,0 352,156.9923 352,352 0,195.0076 -156.9922,352 -352,352 -195.0078,0 -352,-156.9924 -352,-352 0,-195.0077 156.9922,-352 352,-352 z m -160,144 c -26.592,0 -48,21.40803 -48,48 0,26.59197 21.408,48 48,48 h 160 c 26.592,0 48,-21.40803 48,-48 0,-26.59197 -21.408,-48 -48,-48 z m 288,0 c -26.592,0 -48,21.40803 -48,48 0,26.59197 21.408,48 48,48 h 16 c 26.592,0 48,-21.40803 48,-48 0,-26.59197 -21.408,-48 -48,-48 z m -288,32 h 160 c 8.864,0 16,7.13601 16,16 0,8.86399 -7.136,16 -16,16 h -160 c -8.864,0 -16,-7.13601 -16,-16 0,-8.86399 7.136,-16 16,-16 z m 288,0 h 16 c 8.864,0 16,7.13601 16,16 0,8.86399 -7.136,16 -16,16 h -16 c -8.864,0 -16,-7.13601 -16,-16 0,-8.86399 7.136,-16 16,-16 z m -288,128 c -26.592,0 -48,21.40803 -48,48 0,26.59197 21.408,48 48,48 h 320 c 26.592,0 48,-21.40803 48,-48 0,-26.59197 -21.408,-48 -48,-48 z m 0,32 h 320 c 8.864,0 16,7.13601 16,16 0,8.86399 -7.136,16 -16,16 h -320 c -8.864,0 -16,-7.13601 -16,-16 0,-8.86399 7.136,-16 16,-16 z m 0,128 c -26.592,0 -48,21.40803 -48,48 0,26.59197 21.408,48 48,48 h 224 c 26.592,0 48,-21.40803 48,-48 0,-26.59197 -21.408,-48 -48,-48 z m 0,32 h 224 c 8.864,0 16,7.13601 16,16 0,8.86399 -7.136,16 -16,16 h -224 c -8.864,0 -16,-7.13601 -16,-16 0,-8.86399 7.136,-16 16,-16 z" />
    <path
       id="rect281-6"
       style="fill:#2e4631;fill-opacity:1;stroke-width:16"
       d="m 1844,340 c -212.7358,0 -384,171.26461 -384,384 0,212.73529 171.2642,384 384,384 212.7358,0 384,-171.26471 384,-384 0,-212.73539 -171.2642,-384 -384,-384 z m 0,32 c 195.0078,0 352,156.9923 352,352 0,195.0076 -156.9922,352 -352,352 -195.0078,0 -352,-156.9924 -352,-352 0,-195.0077 156.9922,-352 352,-352 z m -160,144 c -26.592,0 -48,21.40803 -48,48 0,26.59197 21.408,48 48,48 h 160 c 26.592,0 48,-21.40803 48,-48 0,-26.59197 -21.408,-48 -48,-48 z m 288,0 c -26.592,0 -48,21.40803 -48,48 0,26.59197 21.408,48 48,48 h 16 c 26.592,0 48,-21.40803 48,-48 0,-26.59197 -21.408,-48 -48,-48 z m -288,32 h 160 c 8.864,0 16,7.13601 16,16 0,8.86399 -7.136,16 -16,16 h -160 c -8.864,0 -16,-7.13601 -16,-16 0,-8.86399 7.136,-16 16,-16 z m 288,0 h 16 c 8.864,0 16,7.13601 16,16 0,8.86399 -7.136,16 -16,16 h -16 c -8.864,0 -16,-7.13601 -16,-16 0,-8.86399 7.136,-16 16,-16 z m -288,128 c -26.592,0 -48,21.40803 -48,48 0,26.59197 21.408,48 48,48 h 320 c 26.592,0 48,-21.40803 48,-48 0,-26.59197 -21.408,-48 -48,-48 z m 0,32 h 320 c 8.864,0 16,7.13601 16,16 0,8.86399 -7.136,16 -16,16 h -320 c -8.864,0 -16,-7.13601 -16,-16 0,-8.86399 7.136,-16 16,-16 z m 0,128 c -26.592,0 -48,21.40803 -48,48 0,26.59197 21.408,48 48,48 h 224 c 26.592,0 48,-21.40803 48,-48 0,-26.59197 -21.408,-48 -48,-48 z m 0,32 h 224 c 8.864,0 16,7.13601 16,16 0,8.86399 -7.136,16 -16,16 h -224 c -8.864,0 -16,-7.13601 -16,-16 0,-8.86399 7.136,-16 16,-16 z" />
  </g>
</svg>
