<?xml version="1.0" encoding="UTF-8" standalone="no"?>
<!-- Created with Inkscape (http://www.inkscape.org/) -->

<svg
   width="1961.3588"
   height="1045.9924"
   viewBox="0 0 1961.3588 1045.9924"
   version="1.1"
   id="svg5"
   xml:space="preserve"
   sodipodi:docname="xfcelogo.svg"
   inkscape:version="1.3.2 (091e20ef0f, 2023-11-25, custom)"
   xmlns:inkscape="http://www.inkscape.org/namespaces/inkscape"
   xmlns:sodipodi="http://sodipodi.sourceforge.net/DTD/sodipodi-0.dtd"
   xmlns="http://www.w3.org/2000/svg"
   xmlns:svg="http://www.w3.org/2000/svg"><sodipodi:namedview
     id="namedview1"
     pagecolor="#505050"
     bordercolor="#ffffff"
     borderopacity="1"
     inkscape:showpageshadow="0"
     inkscape:pageopacity="0"
     inkscape:pagecheckerboard="1"
     inkscape:deskcolor="#d1d1d1"
     inkscape:zoom="0.21478027"
     inkscape:cx="845.04967"
     inkscape:cy="388.76941"
     inkscape:window-width="1384"
     inkscape:window-height="860"
     inkscape:window-x="0"
     inkscape:window-y="0"
     inkscape:window-maximized="1"
     inkscape:current-layer="svg5" /><defs
     id="defs2" /><g
     id="layer1"
     transform="translate(-1210.7913,-1603.3343)"><g
       id="layer1-3"
       transform="translate(3053.8733,1149.9304)"><path
         id="path34544-6"
         style="fill:#001d46;fill-opacity:1;stroke-width:16.126"
         d="m -1456.0585,725.34935 c -214.4104,0 -387.0235,172.61318 -387.0235,387.02345 0,214.4103 172.6131,387.0235 387.0235,387.0235 214.4103,0 387.0235,-172.6132 387.0235,-387.0235 0,-214.41027 -172.6132,-387.02345 -387.0235,-387.02345 z m 0,32.25195 c 196.5431,0 354.7715,158.22844 354.7715,354.7715 0,196.5431 -158.2284,354.7715 -354.7715,354.7715 -196.5432,0 -354.7716,-158.2284 -354.7716,-354.7715 0,-196.54306 158.2284,-354.7715 354.7716,-354.7715 z" /><path
         id="rect281-0"
         style="fill:#003685;fill-opacity:1;stroke-width:16.126"
         d="m -1456.0585,709.22338 c -214.4104,0 -387.0235,172.61316 -387.0235,387.02342 0,214.4104 172.6131,387.0235 387.0235,387.0235 214.4103,0 387.0235,-172.6131 387.0235,-387.0235 0,-214.41026 -172.6132,-387.02342 -387.0235,-387.02342 z m 0,32.25195 c 196.5431,0 354.7715,158.22844 354.7715,354.77147 0,196.5431 -158.2284,354.7715 -354.7715,354.7715 -196.5432,0 -354.7716,-158.2284 -354.7716,-354.7715 0,-196.54303 158.2284,-354.77147 354.7716,-354.77147 z m 0,96.75585 c -412.825,-666.54043 -206.4125,-333.27023 0,0 z" /><g
         id="g4198"
         transform="matrix(3.4072503,0,0,3.4072503,-1684.8978,-690.82765)"
         style="fill:none;fill-opacity:1;stroke:#001d46;stroke-width:4.82405;stroke-dasharray:none;stroke-opacity:1"><path
           d="m 44.966144,485.97029 c -3.142035,8.45315 4.854732,19.64211 1.872181,25.95376 -7.442585,-4.0874 -6.677764,-16.95896 -14.315941,-22.42555 -8.653761,-7.35482 -16.838598,6.27404 -14.2031,14.3009 3.217263,9.45619 2.790969,18.13753 -1.589323,27.25771 -4.002145,15.59984 -6.86082,34.22887 2.871213,48.32163 9.684387,12.1243 27.182485,10.64731 40.748653,7.57549 19.265963,-4.9099 37.137711,-14.22817 54.314833,-24.04045 7.17177,-5.01522 17.22728,-10.43667 17.47804,-20.28154 -2.27164,-14.02506 -17.22226,-20.10351 -29.06319,-24.2511 -11.535006,-4.09241 -23.609164,-6.76302 -35.858836,-7.252 -0.999032,-10.9407 2.124698,-26.90665 -9.651789,-32.82461 -5.286041,-1.19362 -11.768209,1.92735 -12.588199,7.68331 z"
           fill="#ffffff"
           id="path4192"
           style="fill:none;fill-opacity:1;stroke:#001d46;stroke-width:4.82405;stroke-dasharray:none;stroke-opacity:1" /><path
           d="m 93.613783,503.42325 c -2.307502,9.54898 9.286027,10.34006 9.375947,0.27158 0.1,-11.19499 7.55019,-23.37566 2.84113,-33.57689 -2.89155,-6.26392 -7.969187,12.08417 -9.396016,17.11694 -0.986895,5.70181 -2.39078,11.27023 -2.821061,16.18837 z"
           fill="#ffffff"
           id="path4194"
           style="fill:none;fill-opacity:1;stroke:#001d46;stroke-width:4.82405;stroke-dasharray:none;stroke-opacity:1" /><path
           d="m 110.13893,505.17858 c -5.41253,7.53133 3.24374,16.24126 7.08901,6.53483 4.5806,-11.56269 12.90195,-22.06516 14.36359,-34.37933 1.00796,-8.49217 -10.22854,5.77503 -11.88607,9.33583 -3.62006,6.30506 -5.96014,13.49047 -9.56653,18.50867 z"
           fill="#ffffff"
           id="path4196"
           style="fill:none;fill-opacity:1;stroke:#001d46;stroke-width:4.82405;stroke-dasharray:none;stroke-opacity:1" /></g><g
         id="g3268"
         transform="matrix(3.4072503,0,0,3.4072503,-1694.5888,-701.68975)"
         style="fill:none;fill-opacity:1;stroke:#003685;stroke-width:4.82405;stroke-dasharray:none;stroke-opacity:1"><path
           d="m 44.966144,485.97029 c -3.142035,8.45315 4.854732,19.64211 1.872181,25.95376 -7.442585,-4.0874 -6.677764,-16.95896 -14.315941,-22.42555 -8.653761,-7.35482 -16.838598,6.27404 -14.2031,14.3009 3.217263,9.45619 2.790969,18.13753 -1.589323,27.25771 -4.002145,15.59984 -6.86082,34.22887 2.871213,48.32163 9.684387,12.1243 27.182485,10.64731 40.748653,7.57549 19.265963,-4.9099 37.137711,-14.22817 54.314833,-24.04045 7.17177,-5.01522 17.22728,-10.43667 17.47804,-20.28154 -2.27164,-14.02506 -17.22226,-20.10351 -29.06319,-24.2511 -11.535006,-4.09241 -23.609164,-6.76302 -35.858836,-7.252 -0.999032,-10.9407 2.124698,-26.90665 -9.651789,-32.82461 -5.286041,-1.19362 -11.768209,1.92735 -12.588199,7.68331 z"
           fill="#ffffff"
           id="path4"
           style="fill:none;fill-opacity:1;stroke:#003685;stroke-width:4.82405;stroke-dasharray:none;stroke-opacity:1" /><path
           d="m 93.613783,503.42325 c -2.307502,9.54898 9.286027,10.34006 9.375947,0.27158 0.1,-11.19499 7.55019,-23.37566 2.84113,-33.57689 -2.89155,-6.26392 -7.969187,12.08417 -9.396016,17.11694 -0.986895,5.70181 -2.39078,11.27023 -2.821061,16.18837 z"
           fill="#ffffff"
           id="path6"
           style="fill:none;fill-opacity:1;stroke:#003685;stroke-width:4.82405;stroke-dasharray:none;stroke-opacity:1" /><path
           d="m 110.13893,505.17858 c -5.41253,7.53133 3.24374,16.24126 7.08901,6.53483 4.5806,-11.56269 12.90195,-22.06516 14.36359,-34.37933 1.00796,-8.49217 -10.22854,5.77503 -11.88607,9.33583 -3.62006,6.30506 -5.96014,13.49047 -9.56653,18.50867 z"
           fill="#ffffff"
           id="path8"
           style="fill:none;fill-opacity:1;stroke:#003685;stroke-width:4.82405;stroke-dasharray:none;stroke-opacity:1" /></g></g></g><text
     xml:space="preserve"
     style="font-style:normal;font-variant:normal;font-weight:bold;font-stretch:normal;font-size:463.32px;line-height:1;font-family:Roboto;-inkscape-font-specification:'Roboto, Bold';font-variant-ligatures:normal;font-variant-caps:normal;font-variant-numeric:normal;font-variant-east-asian:normal;fill:#002963;fill-opacity:1;stroke-width:171.357;stroke-linecap:round;stroke-linejoin:round"
     x="859.84259"
     y="810.28784"
     id="text1"><tspan
       sodipodi:role="line"
       id="tspan1"
       x="859.84259"
       y="810.28784"
       style="fill:#002963;fill-opacity:1;stroke-width:171.357">XFCE</tspan></text></svg>
