<?xml version="1.0" encoding="UTF-8" standalone="no"?>
<!-- Created with Inkscape (http://www.inkscape.org/) -->

<svg
   width="384"
   height="683"
   viewBox="0 0 384 683"
   version="1.1"
   id="svg5"
   inkscape:version="1.2.1 (9c6d41e410, 2022-07-14)"
   sodipodi:docname="cinnamon.svg"
   xmlns:inkscape="http://www.inkscape.org/namespaces/inkscape"
   xmlns:sodipodi="http://sodipodi.sourceforge.net/DTD/sodipodi-0.dtd"
   xmlns="http://www.w3.org/2000/svg"
   xmlns:svg="http://www.w3.org/2000/svg">
  <sodipodi:namedview
     id="namedview7"
     pagecolor="#4f4f4f"
     bordercolor="#1c1c1c"
     borderopacity="1"
     inkscape:showpageshadow="2"
     inkscape:pageopacity="0"
     inkscape:pagecheckerboard="true"
     inkscape:deskcolor="#4f4f4f"
     inkscape:document-units="px"
     showgrid="false"
     inkscape:zoom="0.5859375"
     inkscape:cx="197.97333"
     inkscape:cy="232.96"
     inkscape:window-width="1440"
     inkscape:window-height="869"
     inkscape:window-x="0"
     inkscape:window-y="0"
     inkscape:window-maximized="1"
     inkscape:current-layer="layer1">
    <inkscape:grid
       type="xygrid"
       id="grid3875"
       originx="0"
       originy="0" />
  </sodipodi:namedview>
  <defs
     id="defs2" />
  <g
     inkscape:label="Capa 1"
     inkscape:groupmode="layer"
     id="layer1">
    <rect
       style="opacity:1;fill:#dc682e;fill-opacity:1;stroke-width:0.510026"
       id="rect3929"
       width="400"
       height="700"
       x="0"
       y="0"
       ry="2.6923077" />
    <path
       d="m 87.468072,437.01493 89.792608,-103.02316 15.16323,27.10641 -30.34594,60.70486 61.26351,-69.53889 75.72906,82.03787 c -42.44728,94.63972 -158.64565,105.08303 -211.608957,2.70156 z"
       fill="#ffffff"
       id="path2372"
       style="fill:none;fill-opacity:1;stroke:#622b10;stroke-width:10.8;stroke-linecap:round;stroke-linejoin:round;stroke-dasharray:none;stroke-opacity:1"
       sodipodi:nodetypes="cccccccc" />
    <path
       d="m 1187.6744,156.45468 c 1.124,128.4 -71.26,253 -181.3,318.4 -118.80002,73.46997 -277.20002,75.44997 -397.80002,5.073 -112.2,-62.81 -187.99999,-186.3 -189.79999,-315.3 -4.006,-128.299996 65.59,-254.599996 174.2,-322.3 117.19999,-75.99 275.49999,-81.23 397.59999,-13.44 113.60002,60.44 192.10002,182.300004 196.70002,311.3 0.2413,5.421 0.3621,10.85 0.3621,16.27 z"
       fill="#dc682e"
       id="path237" />
    <path
       d="m 1187.2744,164.35468 a 384.5,375.1 0 0 1 -384.10002,367.3 384.5,375.1 0 0 1 -384.09999,-364.2 384.5,375.1 0 0 0 -0.423,7.84 384.5,375.1 0 0 0 384.49999,375.09997 384.5,375.1 0 0 0 384.50002,-375.09997 384.5,375.1 0 0 0 -0.4037,-10.92 z"
       opacity="0.2"
       stroke-width="18.99"
       id="path239" />
    <path
       d="m 803.17438,-218.64532 a 384.5,375.1 0 0 0 -384.5,375.1 384.5,375.1 0 0 0 0.4133,10.92 384.5,375.1 0 0 1 384.1,-367.3 384.5,375.1 0 0 1 384.10002,364.2 384.5,375.1 0 0 0 0.423,-7.84 384.5,375.1 0 0 0 -384.50002,-375.1 z"
       fill="#ffffff"
       opacity="0.2"
       stroke-width="18.99"
       id="path241" />
    <path
       d="m 85.364015,432.79278 89.792605,-103.02316 15.16323,27.10641 -30.34594,60.70486 62.87753,-71.56819 77.304,85.14078 C 254.22389,522.7888 138.32083,535.1629 85.357526,432.78143 Z"
       fill="#ffffff"
       id="path243"
       style="fill:none;fill-opacity:1;stroke:#a94a1d;stroke-width:10.8;stroke-linecap:round;stroke-linejoin:round;stroke-dasharray:none;stroke-opacity:1"
       sodipodi:nodetypes="cccccccc" />
    <path
       id="path34544"
       style="fill:#622b10;fill-opacity:1;stroke-width:5"
       d="m 192,275 c -66.47979,0 -120,53.52022 -120,120 0,66.47979 53.52021,120 120,120 66.47978,0 120,-53.52021 120,-120 0,-66.47978 -53.52022,-120 -120,-120 z m 0,10 c 60.93988,0 110,49.06011 110,110 0,60.93989 -49.06012,110 -110,110 C 131.06011,505 82,455.93989 82,395 82,334.06011 131.06011,285 192,285 Z"
       sodipodi:nodetypes="ssssssssss" />
    <path
       id="rect281"
       style="fill:#a94a1d;fill-opacity:1;stroke-width:5"
       d="m 192,270 c -66.47979,0 -120,53.52022 -120,120 0,66.47979 53.52021,120 120,120 66.47978,0 120,-53.52021 120,-120 0,-66.47978 -53.52022,-120 -120,-120 z m 0,10 c 60.93988,0 110,49.06011 110,110 0,60.93989 -49.06012,110 -110,110 C 131.06011,500 82,450.93989 82,390 82,329.06011 131.06011,280 192,280 Z m 0,30 c -128,-206.66667 -64,-103.33333 0,0 z"
       sodipodi:nodetypes="sssssssssscc" />
    <rect
       style="opacity:1;fill:#43a64f;fill-opacity:1;stroke-width:0.510026"
       id="rect1771"
       width="400"
       height="700"
       x="-434.19824"
       y="-3.7318296"
       ry="2.6923077" />
    <path
       id="path1773"
       style="fill:#29382a;fill-opacity:1;stroke-width:5"
       d="m -242.19826,271.26817 c -66.47979,0 -120,53.52022 -120,120 0,66.47979 53.52021,120 120,120 66.47978,0 120,-53.52021 120,-120 0,-66.47978 -53.52022,-120 -120,-120 z m 0,10 c 60.93988,0 110,49.06011 110,110 0,60.93989 -49.06012,110 -110,110 -60.93989,0 -110,-49.06011 -110,-110 0,-60.93989 49.06011,-110 110,-110 z m 0,30 c -13.84994,0 -25,11.15007 -25,25 v 25 a 5,5 0 0 1 -5,5 h -25 c -13.84994,0 -25,11.15007 -25,25 0,13.84994 11.15006,25 25,25 h 25 a 5,5 0 0 1 5,5 v 25 c 0,13.84994 11.15006,25 25,25 13.84993,0 25,-11.15006 25,-25 v -25 a 5,5 0 0 1 5,-5 h 25 c 13.84993,0 25,-11.15006 25,-25 0,-13.84993 -11.15007,-25 -25,-25 h -25 a 5,5 0 0 1 -5,-5 v -25 c 0,-13.84993 -11.15007,-25 -25,-25 z m 0,10 c 8.30994,0 15,6.69006 15,15 v 25 a 15,15 0 0 0 15,15 h 25 c 8.30994,0 15,6.69006 15,15 0,8.30994 -6.69006,15 -15,15 h -25 a 15,15 0 0 0 -15,15 v 25 c 0,8.30994 -6.69006,15 -15,15 -8.30995,0 -15,-6.69006 -15,-15 v -25 a 15,15 0 0 0 -15,-15 h -25 c -8.30995,0 -15,-6.69006 -15,-15 0,-8.30994 6.69005,-15 15,-15 h 25 a 15,15 0 0 0 15,-15 v -25 c 0,-8.30994 6.69005,-15 15,-15 z" />
    <path
       id="path1775"
       style="fill:#2e4631;fill-opacity:1;stroke-width:5"
       d="m -242.19826,266.26817 c -66.47979,0 -120,53.52022 -120,120 0,66.47979 53.52021,120 120,120 66.47978,0 120,-53.52021 120,-120 0,-66.47978 -53.52022,-120 -120,-120 z m 0,10 c 60.93988,0 110,49.06011 110,110 0,60.93989 -49.06012,110 -110,110 -60.93989,0 -110,-49.06011 -110,-110 0,-60.93989 49.06011,-110 110,-110 z m 0,30 c -13.84994,0 -25,11.15007 -25,25 v 25 a 5,5 0 0 1 -5,5 h -25 c -13.84994,0 -25,11.15007 -25,25 0,13.84994 11.15006,25 25,25 h 25 a 5,5 0 0 1 5,5 v 25 c 0,13.84994 11.15006,25 25,25 13.84993,0 25,-11.15006 25,-25 v -25 a 5,5 0 0 1 5,-5 h 25 c 13.84993,0 25,-11.15006 25,-25 0,-13.84993 -11.15007,-25 -25,-25 h -25 a 5,5 0 0 1 -5,-5 v -25 c 0,-13.84993 -11.15007,-25 -25,-25 z m 0,10 c 8.30994,0 15,6.69006 15,15 v 25 a 15,15 0 0 0 15,15 h 25 c 8.30994,0 15,6.69006 15,15 0,8.30994 -6.69006,15 -15,15 h -25 a 15,15 0 0 0 -15,15 v 25 c 0,8.30994 -6.69006,15 -15,15 -8.30995,0 -15,-6.69006 -15,-15 v -25 a 15,15 0 0 0 -15,-15 h -25 c -8.30995,0 -15,-6.69006 -15,-15 0,-8.30994 6.69005,-15 15,-15 h 25 a 15,15 0 0 0 15,-15 v -25 c 0,-8.30994 6.69005,-15 15,-15 z" />
  </g>
</svg>
